<svg width="14" height="14" viewBox="0 0 14 14" fill="none" xmlns="http://www.w3.org/2000/svg">
<path d="M7.00039 1.8999C8.65039 1.8999 8.87539 1.8999 9.55039 1.8999C10.1504 1.8999 10.4504 2.0499 10.6754 2.1249C10.9754 2.2749 11.2004 2.3499 11.4254 2.5749C11.6504 2.7999 11.8004 3.0249 11.8754 3.3249C11.9504 3.5499 12.0254 3.8499 12.1004 4.4499C12.1004 5.1249 12.1004 5.2749 12.1004 6.9999C12.1004 8.7249 12.1004 8.8749 12.1004 9.5499C12.1004 10.1499 11.9504 10.4499 11.8754 10.6749C11.7254 10.9749 11.6504 11.1999 11.4254 11.4249C11.2004 11.6499 10.9754 11.7999 10.6754 11.8749C10.4504 11.9499 10.1504 12.0249 9.55039 12.0999C8.87539 12.0999 8.72539 12.0999 7.00039 12.0999C5.27539 12.0999 5.12539 12.0999 4.45039 12.0999C3.85039 12.0999 3.55039 11.9499 3.32539 11.8749C3.02539 11.7249 2.80039 11.6499 2.57539 11.4249C2.35039 11.1999 2.20039 10.9749 2.12539 10.6749C2.05039 10.4499 1.97539 10.1499 1.90039 9.5499C1.90039 8.8749 1.90039 8.7249 1.90039 6.9999C1.90039 5.2749 1.90039 5.1249 1.90039 4.4499C1.90039 3.8499 2.05039 3.5499 2.12539 3.3249C2.27539 3.0249 2.35039 2.7999 2.57539 2.5749C2.80039 2.3499 3.02539 2.1999 3.32539 2.1249C3.55039 2.0499 3.85039 1.9749 4.45039 1.8999C5.12539 1.8999 5.35039 1.8999 7.00039 1.8999ZM7.00039 0.774902C5.27539 0.774902 5.12539 0.774902 4.45039 0.774902C3.77539 0.774902 3.32539 0.924903 2.95039 1.0749C2.57539 1.2249 2.20039 1.4499 1.82539 1.8249C1.45039 2.1999 1.30039 2.4999 1.07539 2.9499C0.925391 3.3249 0.850391 3.7749 0.775391 4.4499C0.775391 5.1249 0.775391 5.3499 0.775391 6.9999C0.775391 8.7249 0.775391 8.8749 0.775391 9.5499C0.775391 10.2249 0.925391 10.6749 1.07539 11.0499C1.22539 11.4249 1.45039 11.7999 1.82539 12.1749C2.20039 12.5499 2.50039 12.6999 2.95039 12.9249C3.32539 13.0749 3.77539 13.1499 4.45039 13.2249C5.12539 13.2249 5.35039 13.2249 7.00039 13.2249C8.65039 13.2249 8.87539 13.2249 9.55039 13.2249C10.2254 13.2249 10.6754 13.0749 11.0504 12.9249C11.4254 12.7749 11.8004 12.5499 12.1754 12.1749C12.5504 11.7999 12.7004 11.4999 12.9254 11.0499C13.0754 10.6749 13.1504 10.2249 13.2254 9.5499C13.2254 8.8749 13.2254 8.6499 13.2254 6.9999C13.2254 5.3499 13.2254 5.1249 13.2254 4.4499C13.2254 3.7749 13.0754 3.3249 12.9254 2.9499C12.7754 2.5749 12.5504 2.1999 12.1754 1.8249C11.8004 1.4499 11.5004 1.2999 11.0504 1.0749C10.6754 0.924903 10.2254 0.849902 9.55039 0.774902C8.87539 0.774902 8.72539 0.774902 7.00039 0.774902Z" fill="white"/>
<path d="M7.00039 3.7749C5.20039 3.7749 3.77539 5.1999 3.77539 6.9999C3.77539 8.7999 5.20039 10.2249 7.00039 10.2249C8.80039 10.2249 10.2254 8.7999 10.2254 6.9999C10.2254 5.1999 8.80039 3.7749 7.00039 3.7749ZM7.00039 9.0999C5.87539 9.0999 4.90039 8.1999 4.90039 6.9999C4.90039 5.8749 5.80039 4.8999 7.00039 4.8999C8.12539 4.8999 9.10039 5.7999 9.10039 6.9999C9.10039 8.1249 8.12539 9.0999 7.00039 9.0999Z" fill="white"/>
<path d="M10.3004 4.4499C10.7146 4.4499 11.0504 4.11412 11.0504 3.6999C11.0504 3.28569 10.7146 2.9499 10.3004 2.9499C9.88618 2.9499 9.55039 3.28569 9.55039 3.6999C9.55039 4.11412 9.88618 4.4499 10.3004 4.4499Z" fill="white"/>
</svg>
