<svg width="12" height="10" viewBox="0 0 12 10" fill="none" xmlns="http://www.w3.org/2000/svg">
<path d="M11.7 2.07505C11.55 1.55005 11.175 1.17505 10.65 1.02505C9.75001 0.800049 5.925 0.800049 5.925 0.800049C5.925 0.800049 2.175 0.800049 1.2 1.02505C0.675005 1.17505 0.299998 1.55005 0.149998 2.07505C-2.29105e-06 3.05005 0 5.00005 0 5.00005C0 5.00005 2.27988e-06 6.95005 0.225002 7.92505C0.375002 8.45005 0.749998 8.82505 1.275 8.97505C2.175 9.20005 6 9.20005 6 9.20005C6 9.20005 9.74999 9.20005 10.725 8.97505C11.25 8.82505 11.625 8.45005 11.775 7.92505C12 6.95005 12 5.00005 12 5.00005C12 5.00005 12 3.05005 11.7 2.07505ZM4.8 6.80005V3.20005L7.95 5.00005L4.8 6.80005Z" fill="white"/>
</svg>
