<svg width="70" height="70" viewBox="0 0 70 70" fill="none" xmlns="http://www.w3.org/2000/svg">
<path d="M41.6886 28.6806H56.7413C61.439 28.6806 64.4945 33.6243 62.3936 37.8261L51.3345 59.9442C50.2641 62.0851 48.0759 63.4375 45.6823 63.4375H32.9874C32.4707 63.4375 31.956 63.3741 31.4547 63.2488L19.5705 60.2778M41.6886 28.6806V12.8819C41.6886 9.39181 38.8593 6.5625 35.3691 6.5625H35.0675C33.489 6.5625 32.2094 7.84209 32.2094 9.42055C32.2094 11.6776 31.5413 13.8841 30.2894 15.762L19.5705 31.8403V60.2778M41.6886 28.6806H35.3691M19.5705 60.2778H13.2511C9.76095 60.2778 6.93164 57.4485 6.93164 53.9583V35C6.93164 31.5099 9.76095 28.6806 13.2511 28.6806H21.1504" stroke="#1D9698" stroke-width="5.84063" stroke-linecap="round" stroke-linejoin="round"/>
</svg>
