<svg width="225" height="60" viewBox="0 0 225 60" fill="none" xmlns="http://www.w3.org/2000/svg">
<path fill-rule="evenodd" clip-rule="evenodd" d="M62.3906 22.0376C62.3906 22.1835 62.5006 22.306 62.6521 22.306H63.6135C63.7556 22.306 63.875 22.1821 63.875 22.0376V18.6193L66.7243 22.2275C66.7471 22.2619 66.8115 22.306 66.9214 22.306H68.1121C68.3307 22.306 68.4179 22.0596 68.3079 21.9138L65.2507 18.1596L68.1001 14.8651C68.2422 14.6972 68.1323 14.4619 67.9258 14.4619H66.8343C66.7364 14.4619 66.6707 14.5183 66.6264 14.5748L63.875 17.7564V14.7316C63.875 14.5858 63.7543 14.4633 63.6135 14.4633H62.6521C62.4992 14.4633 62.3906 14.5872 62.3906 14.7316V22.0376ZM213.485 34.9775V27.5587C213.485 27.4472 213.387 27.3454 213.277 27.3454H212.262C212.152 27.3454 212.054 27.4459 212.054 27.5587V34.9775C212.054 35.089 212.152 35.1908 212.262 35.1908H213.277C213.386 35.1908 213.485 35.089 213.485 34.9775ZM214.794 27.4349V34.9761C214.794 35.089 214.892 35.1894 215.002 35.1894H215.995C216.115 35.1894 216.203 35.089 216.203 34.9761V30.1583H216.214L220.778 35.3023H221.04C221.15 35.3023 221.248 35.2128 221.248 35.1V27.5587C221.248 27.4459 221.15 27.3454 221.04 27.3454H220.035C219.916 27.3454 219.828 27.4459 219.828 27.5587V32.1867H219.817L215.274 27.2339H215.002C214.892 27.2339 214.794 27.3234 214.794 27.4349ZM204.255 27.4349V34.9761C204.255 35.089 204.352 35.1894 204.462 35.1894H205.456C205.575 35.1894 205.664 35.089 205.664 34.9761V30.1583H205.675L210.239 35.3023H210.5C210.609 35.3023 210.708 35.2128 210.708 35.1V27.5587C210.708 27.4459 210.61 27.3454 210.5 27.3454H209.496C209.377 27.3454 209.288 27.4459 209.288 27.5587V32.1867H209.278L204.735 27.2339H204.462C204.352 27.2339 204.255 27.3234 204.255 27.4349ZM69.5093 22.094C69.5093 22.2055 69.6072 22.3073 69.7172 22.3073H70.7322C70.8408 22.3073 70.9401 22.2069 70.9401 22.094V14.6752C70.9401 14.5624 70.8422 14.4619 70.7322 14.4619H69.7172C69.6086 14.4619 69.5093 14.5624 69.5093 14.6752V22.094ZM70.2294 13.555C70.6665 13.555 71.0152 13.1959 71.0152 12.7486C71.0152 12.3 70.6652 11.9422 70.2294 11.9422C69.7923 11.9422 69.4436 12.3 69.4436 12.7486C69.4436 13.1959 69.7936 13.555 70.2294 13.555ZM75.6238 22.3514V23.3037C75.6238 23.3601 75.6452 23.4826 75.8101 23.506C76.3773 23.55 76.608 23.7867 76.608 24.055C76.608 24.2794 76.4444 24.4693 76.2258 24.4693C76.1279 24.4693 75.9858 24.4362 75.8986 24.3344C75.8437 24.267 75.7351 24.256 75.6694 24.3234L75.4508 24.5133C75.3529 24.6028 75.3315 24.7266 75.4186 24.8271C75.605 25.0514 75.9214 25.2193 76.2486 25.2193C76.8922 25.2193 77.4058 24.6922 77.4058 24.0427C77.4058 23.4151 77.0129 22.9775 76.3465 22.8881V22.4174C77.3079 22.4064 78.2358 22.0706 78.9786 21.3303C79.0551 21.2518 79.0765 21.106 78.9894 21.0275L78.3122 20.3105C78.2465 20.2431 78.1258 20.2321 78.0387 20.3105C77.5801 20.6917 77.0236 20.9491 76.368 20.9491C74.9708 20.9491 73.9222 19.7615 73.9222 18.3605C73.9222 16.9486 74.96 15.75 76.3572 15.75C76.9687 15.75 77.5801 15.9963 78.0387 16.4105C78.1258 16.5 78.2358 16.5 78.3122 16.4105L78.9786 15.7046C79.0658 15.6151 79.0658 15.4803 78.9679 15.3908C78.2251 14.7069 77.4286 14.3491 76.325 14.3491C74.1408 14.3491 72.3829 16.1532 72.3829 18.3936C72.3802 20.3904 73.7787 22.0266 75.6238 22.3514ZM80.4174 22.094C80.4174 22.2055 80.5153 22.3073 80.6253 22.3073H81.6403C81.7489 22.3073 81.8481 22.2069 81.8481 22.094V14.6752C81.8481 14.5624 81.7502 14.4619 81.6403 14.4619H80.6253C80.5153 14.4619 80.4174 14.5624 80.4174 14.6752V22.094ZM81.1375 13.555C81.5746 13.555 81.9232 13.1959 81.9232 12.7486C81.9232 12.3 81.5733 11.9422 81.1375 11.9422C80.7003 11.9422 80.3517 12.3 80.3517 12.7486C80.3517 13.1959 80.7003 13.555 81.1375 13.555ZM83.834 22.0376C83.834 22.1835 83.9439 22.306 84.0968 22.306H85.0582C85.2003 22.306 85.3197 22.1821 85.3197 22.0376V18.6193L88.1691 22.2275C88.1905 22.2619 88.2562 22.306 88.3662 22.306H89.5569C89.7754 22.306 89.8626 22.0596 89.754 21.9138L86.6968 18.1596L89.5461 14.8651C89.6883 14.6972 89.5783 14.4619 89.3705 14.4619H88.279C88.1811 14.4619 88.1154 14.5183 88.0712 14.5748L85.3197 17.7564V14.7316C85.3197 14.5858 85.2003 14.4633 85.0582 14.4633H84.0968C83.9439 14.4633 83.834 14.5872 83.834 14.7316V22.0376ZM95.7799 22.2963C95.8121 22.3638 95.8671 22.4188 95.9663 22.4188H96.0749C96.1728 22.4188 96.2278 22.3624 96.2599 22.2963L99.6443 14.755C99.71 14.6092 99.6229 14.4633 99.4593 14.4633H98.345C98.2471 14.4633 98.1814 14.5307 98.16 14.5872L96.0642 19.405H95.9877L93.8906 14.5872C93.8691 14.5307 93.8034 14.4633 93.7056 14.4633H92.5913C92.4277 14.4633 92.3405 14.6092 92.4049 14.755L95.7799 22.2963ZM100.136 17.8252C100.114 18.0151 100.092 18.2064 100.092 18.3963C100.092 20.6381 101.829 22.4188 104.012 22.4188C106.196 22.4188 107.942 20.6367 107.942 18.3963C107.942 16.1546 106.195 14.3518 104.012 14.3518C102.876 14.3518 102.079 14.711 101.337 15.3936C101.239 15.483 101.239 15.6179 101.326 15.7073L101.992 16.4133C102.069 16.5027 102.177 16.5027 102.266 16.4133C102.724 15.9991 103.336 15.7528 103.947 15.7528C105.115 15.7968 106.098 16.5922 106.414 17.6463H100.344C100.245 17.645 100.158 17.7234 100.136 17.8252ZM104.013 20.9628C102.845 20.9628 101.841 20.122 101.578 19.0018H106.448C106.185 20.122 105.181 20.9628 104.013 20.9628ZM111.24 18.3963C111.24 20.6381 112.977 22.4188 115.16 22.4188C117.344 22.4188 119.09 20.6367 119.09 18.3963C119.09 16.1546 117.343 14.3518 115.16 14.3518C112.977 14.3505 111.24 16.1546 111.24 18.3963ZM112.66 18.3963C112.66 16.9844 113.785 15.8078 115.161 15.8078C116.537 15.8078 117.672 16.9844 117.672 18.3963C117.672 19.8083 116.537 20.9628 115.161 20.9628C113.785 20.9628 112.66 19.8083 112.66 18.3963ZM120.522 22.094C120.522 22.2055 120.609 22.3073 120.73 22.3073H121.734C121.843 22.3073 121.942 22.2069 121.942 22.094V19.2372H123.154L124.606 22.2069C124.628 22.2523 124.683 22.3073 124.78 22.3073H125.927C126.112 22.3073 126.188 22.1284 126.112 21.9826L124.616 19.1367C125.565 18.7445 126.231 17.9037 126.231 16.8729C126.231 15.5394 125.161 14.4633 123.851 14.4633H120.728C120.608 14.4633 120.521 14.5638 120.521 14.6766V22.094H120.522ZM121.953 18.0372V15.8078H123.732C124.31 15.8078 124.813 16.3005 124.813 16.895C124.813 17.5225 124.31 18.0385 123.732 18.0385H121.953V18.0372ZM128.819 22.094C128.819 22.2055 128.917 22.3073 129.027 22.3073H130.042C130.152 22.3073 130.25 22.2069 130.25 22.094V15.8078H131.921C132.041 15.8078 132.127 15.7073 132.127 15.5945V14.6752C132.127 14.5624 132.04 14.4619 131.921 14.4619H127.148C127.029 14.4619 126.941 14.5624 126.941 14.6752V15.5945C126.941 15.7073 127.028 15.8078 127.148 15.8078H128.819V22.094ZM132.041 22.3073C131.878 22.3073 131.789 22.1615 131.856 22.0156L135.251 14.4743C135.284 14.4069 135.339 14.3518 135.436 14.3518H135.545C135.654 14.3518 135.698 14.4083 135.73 14.4743L139.093 22.0156C139.159 22.1615 139.072 22.3073 138.907 22.3073H137.957C137.794 22.3073 137.717 22.2399 137.641 22.083L137.106 20.8734H133.841L133.306 22.083C133.262 22.1945 133.164 22.3073 132.989 22.3073H132.041ZM134.377 19.6294H136.572L135.481 17.1647H135.449L134.377 19.6294ZM142.502 22.094C142.502 22.2055 142.589 22.3073 142.709 22.3073H145.352C146.684 22.3073 147.732 21.3991 147.732 20.144C147.732 19.1133 146.892 18.5078 146.312 18.3179C146.826 18.0716 147.514 17.3986 147.514 16.5358C147.514 15.3592 146.509 14.4633 145.21 14.4633H142.709C142.589 14.4633 142.502 14.5638 142.502 14.6766V22.094ZM143.91 17.7578V15.7968H145.077C145.634 15.7968 146.016 16.189 146.016 16.7491C146.016 17.3092 145.634 17.7578 145.077 17.7578H143.91ZM143.91 20.9849V18.9908H145.099C145.666 18.9908 146.213 19.405 146.213 19.9651C146.213 20.5472 145.776 20.9849 145.23 20.9849H143.91ZM149.238 22.094C149.238 22.2055 149.336 22.3073 149.446 22.3073H150.461C150.57 22.3073 150.669 22.2069 150.669 22.094V14.6752C150.669 14.5624 150.571 14.4619 150.461 14.4619H149.446C149.337 14.4619 149.238 14.5624 149.238 14.6752V22.094ZM149.958 13.555C150.395 13.555 150.744 13.1959 150.744 12.7486C150.744 12.3 150.394 11.9422 149.958 11.9422C149.521 11.9422 149.172 12.3 149.172 12.7486C149.172 13.1959 149.521 13.555 149.958 13.555ZM151.935 22.094C151.935 22.2055 152.033 22.3073 152.143 22.3073H156.805C156.925 22.3073 157.013 22.2069 157.013 22.094V21.1638C157.013 21.0509 156.925 20.9505 156.805 20.9505H154.02V20.9271L157.23 14.8197V14.6739C157.23 14.561 157.132 14.4605 157.022 14.4605H152.459C152.349 14.4605 152.251 14.561 152.251 14.6739V15.6041C152.251 15.7156 152.349 15.8174 152.459 15.8174H155.189V15.8615L151.936 21.8904V22.094H151.935ZM158.529 22.094C158.529 22.2055 158.627 22.3073 158.737 22.3073H159.731C159.851 22.3073 159.938 22.2069 159.938 22.094V17.2761H159.949L164.514 22.4188H164.775C164.885 22.4188 164.983 22.3294 164.983 22.2165V14.6752C164.983 14.5624 164.885 14.4619 164.775 14.4619H163.771C163.65 14.4619 163.563 14.5624 163.563 14.6752V19.3032H163.552L159.009 14.3505H158.737C158.627 14.3505 158.529 14.4399 158.529 14.5514V22.094ZM166.97 22.094C166.97 22.2055 167.057 22.3073 167.178 22.3073H171.622C171.742 22.3073 171.829 22.2069 171.829 22.094V21.1748C171.829 21.0619 171.742 20.9615 171.622 20.9615H168.39V19.0005H171.087C171.195 19.0005 171.294 18.911 171.294 18.7872V17.8569C171.294 17.7454 171.196 17.6436 171.087 17.6436H168.39V15.805H171.622C171.742 15.805 171.829 15.7046 171.829 15.5917V14.6725C171.829 14.5596 171.742 14.4592 171.622 14.4592H167.178C167.057 14.4592 166.97 14.5596 166.97 14.6725V22.094ZM172.997 21.545C173.216 21.7583 174.024 22.4188 175.399 22.4188C176.938 22.4188 177.91 21.3537 177.91 20.2005C177.91 18.7555 176.687 18.1046 175.628 17.6683C174.743 17.2982 174.339 16.9404 174.339 16.4133C174.339 16.0541 174.677 15.6289 175.301 15.6289C175.902 15.6289 176.732 16.189 176.819 16.2454C176.95 16.3349 177.114 16.2454 177.201 16.1105L177.617 15.472C177.693 15.3605 177.66 15.1693 177.551 15.1018C177.332 14.9339 176.481 14.3518 175.368 14.3518C173.632 14.3518 172.911 15.5064 172.911 16.5028C172.911 17.8252 173.937 18.4968 174.964 18.9234C175.882 19.3046 176.351 19.6968 176.351 20.2679C176.351 20.7495 175.926 21.1307 175.357 21.1307C174.648 21.1307 173.763 20.4702 173.708 20.4358C173.61 20.3573 173.424 20.3573 173.337 20.5142L172.944 21.2092C172.844 21.3881 172.899 21.4445 172.997 21.545ZM61.9977 34.3651C62.2163 34.5784 63.0235 35.239 64.3992 35.239C65.9386 35.239 66.9107 34.1739 66.9107 33.0206C66.9107 31.5757 65.6878 30.9248 64.6285 30.4885C63.7436 30.1183 63.3399 29.7605 63.3399 29.2335C63.3399 28.8743 63.6792 28.4491 64.3014 28.4491C64.9021 28.4491 65.7321 29.0092 65.8192 29.0656C65.9506 29.155 66.1142 29.0656 66.2014 28.9307L66.6157 28.2922C66.6921 28.1807 66.66 27.9894 66.55 27.922C66.3315 27.7541 65.48 27.1706 64.3657 27.1706C62.6293 27.1706 61.9092 28.3252 61.9092 29.3216C61.9092 30.644 62.935 31.317 63.9621 31.7422C64.8793 32.1234 65.3486 32.5156 65.3486 33.0867C65.3486 33.5683 64.9222 33.9495 64.355 33.9495C63.6457 33.9495 62.7607 33.289 62.7057 33.2546C62.6078 33.1761 62.4214 33.1761 62.3343 33.333L61.9414 34.028C61.8449 34.2083 61.8985 34.2633 61.9977 34.3651ZM68.1993 32.1578C68.1993 33.8615 69.5201 35.239 71.2351 35.239C72.9608 35.239 74.2815 33.8601 74.2815 32.1578V27.4954C74.2815 27.3839 74.1837 27.2821 74.0737 27.2821H73.0359C72.9165 27.2821 72.828 27.3826 72.828 27.4954V32.0904C72.828 33.0317 72.1844 33.783 71.2337 33.783C70.2844 33.783 69.6501 33.0317 69.6501 32.0794V27.4968C69.6501 27.3853 69.563 27.2835 69.4423 27.2835H68.4045C68.2958 27.2835 68.1966 27.3839 68.1966 27.4968V32.1578H68.1993ZM76.1588 34.9142C76.1588 35.0257 76.2459 35.1275 76.3666 35.1275H79.0081C80.3396 35.1275 81.3882 34.2193 81.3882 32.9642C81.3882 31.9335 80.5475 31.328 79.9696 31.1381C80.4831 30.8917 81.171 30.2188 81.171 29.356C81.171 28.1794 80.1667 27.2835 78.8674 27.2835H76.3666C76.2459 27.2835 76.1588 27.3839 76.1588 27.4968V34.9142ZM77.5667 30.5766V28.6156H78.7346C79.2911 28.6156 79.6732 29.0078 79.6732 29.5679C79.6732 30.128 79.2911 30.5766 78.7346 30.5766H77.5667ZM77.5667 33.8037V31.8096H78.7574C79.3246 31.8096 79.8717 32.2239 79.8717 32.7839C79.8717 33.3674 79.4346 33.8037 78.8888 33.8037H77.5667ZM84.3261 34.9142C84.3261 35.0257 84.4132 35.1275 84.5339 35.1275H85.5382C85.6482 35.1275 85.7461 35.0271 85.7461 34.9142V31.339L88.2683 27.6069C88.3554 27.461 88.2683 27.2821 88.0926 27.2821H86.9676C86.8805 27.2821 86.8255 27.3385 86.7933 27.3826L85.0461 29.9601L83.299 27.3826C83.2668 27.3372 83.2118 27.2821 83.1247 27.2821H82.0117C81.8374 27.2821 81.7503 27.461 81.8374 27.6069L84.3274 31.35V34.9142H84.3261ZM89.2284 34.9142C89.2284 35.0257 89.3155 35.1275 89.4362 35.1275H93.8799C93.9992 35.1275 94.0877 35.0271 94.0877 34.9142V33.995C94.0877 33.8835 94.0005 33.7816 93.8799 33.7816H90.6483V31.8206H93.3449C93.4548 31.8206 93.5527 31.7312 93.5527 31.6073V30.6771C93.5527 30.5642 93.4548 30.4638 93.3449 30.4638H90.6483V28.6266H93.8799C93.9992 28.6266 94.0877 28.5261 94.0877 28.4133V27.494C94.0877 27.3826 94.0005 27.2807 93.8799 27.2807H89.4362C89.3168 27.2807 89.2284 27.3812 89.2284 27.494V34.9142ZM95.6485 34.8578C95.6485 35.0037 95.7571 35.1275 95.91 35.1275H96.8714C97.0135 35.1275 97.1329 35.0037 97.1329 34.8578V31.4394L99.9822 35.0477C100.004 35.0807 100.069 35.1261 100.179 35.1261H101.37C101.589 35.1261 101.676 34.8798 101.567 34.7339L98.5099 30.9798L101.359 27.6853C101.501 27.5174 101.391 27.2821 101.185 27.2821H100.094C99.9956 27.2821 99.9299 27.3385 99.8857 27.3936L97.1342 30.5752V27.5505C97.1342 27.4046 97.0149 27.2821 96.8727 27.2821H95.9113C95.7584 27.2821 95.6498 27.406 95.6498 27.5505V34.8578H95.6485ZM103.827 34.9142C103.827 35.0257 103.924 35.1275 104.034 35.1275H105.049C105.159 35.1275 105.257 35.0271 105.257 34.9142V28.628H106.928C107.049 28.628 107.136 28.5275 107.136 28.4147V27.4954C107.136 27.3839 107.049 27.2821 106.928 27.2821H102.157C102.036 27.2821 101.949 27.3826 101.949 27.4954V28.4147C101.949 28.5275 102.036 28.628 102.157 28.628H103.828V34.9142H103.827ZM108.27 34.9142C108.27 35.0257 108.357 35.1275 108.478 35.1275H112.474C112.595 35.1275 112.682 35.0271 112.682 34.9142V33.995C112.682 33.8835 112.595 33.7816 112.474 33.7816H109.689V27.4954C109.689 27.3839 109.591 27.2821 109.481 27.2821H108.478C108.359 27.2821 108.27 27.3826 108.27 27.4954V34.9142ZM113.282 30.644C113.261 30.8353 113.238 31.0252 113.238 31.2151C113.238 33.4555 114.975 35.2376 117.158 35.2376C119.341 35.2376 121.088 33.4555 121.088 31.2151C121.088 28.9734 119.341 27.1693 117.158 27.1693C116.022 27.1693 115.225 27.5284 114.483 28.211C114.385 28.3005 114.385 28.4353 114.472 28.5248L115.138 29.2307C115.215 29.3202 115.323 29.3202 115.412 29.2307C115.87 28.8165 116.482 28.5702 117.093 28.5702C118.261 28.6142 119.244 29.4096 119.56 30.4638H113.49C113.391 30.4651 113.304 30.5436 113.282 30.644ZM117.159 33.7816C115.99 33.7816 114.985 32.9408 114.724 31.8206H119.594C119.331 32.9422 118.327 33.7816 117.159 33.7816ZM122.52 34.9142C122.52 35.0257 122.607 35.1275 122.728 35.1275H123.732C123.842 35.1275 123.94 35.0271 123.94 34.9142V32.056H125.152L126.604 35.0257C126.626 35.0697 126.681 35.1261 126.778 35.1261H127.925C128.11 35.1261 128.186 34.9472 128.11 34.8014L126.613 31.9555C127.564 31.5633 128.229 30.7225 128.229 29.6917C128.229 28.3583 127.159 27.2821 125.849 27.2821H122.726C122.606 27.2821 122.518 27.3826 122.518 27.4954V34.9142H122.52ZM123.949 30.8573V28.628H125.729C126.308 28.628 126.809 29.1206 126.809 29.7151C126.809 30.3427 126.306 30.8587 125.729 30.8587H123.949V30.8573ZM129.791 34.9142C129.791 35.0257 129.889 35.1275 129.999 35.1275H131.014C131.123 35.1275 131.222 35.0271 131.222 34.9142V27.4954C131.222 27.3839 131.123 27.2821 131.014 27.2821H129.999C129.889 27.2821 129.791 27.3826 129.791 27.4954V34.9142ZM130.511 26.3752C130.949 26.3752 131.297 26.0161 131.297 25.5688C131.297 25.1202 130.947 24.7624 130.511 24.7624C130.074 24.7624 129.726 25.1202 129.726 25.5688C129.726 26.0161 130.076 26.3752 130.511 26.3752ZM138.003 35.1151C138.035 35.1826 138.09 35.2376 138.188 35.2376H138.297C138.394 35.2376 138.449 35.1812 138.482 35.1151L141.866 27.5739C141.932 27.428 141.845 27.2821 141.68 27.2821H140.567C140.469 27.2821 140.403 27.3495 140.382 27.406L138.286 32.2239H138.209L136.114 27.406C136.092 27.3495 136.026 27.2821 135.927 27.2821H134.813C134.649 27.2821 134.562 27.428 134.628 27.5739L138.003 35.1151ZM142.359 30.644C142.338 30.8353 142.315 31.0252 142.315 31.2151C142.315 33.4555 144.052 35.2376 146.235 35.2376C148.418 35.2376 150.165 33.4555 150.165 31.2151C150.165 28.9734 148.418 27.1693 146.235 27.1693C145.099 27.1693 144.302 27.5284 143.56 28.211C143.462 28.3005 143.462 28.4353 143.549 28.5248L144.215 29.2307C144.292 29.3202 144.4 29.3202 144.489 29.2307C144.947 28.8165 145.559 28.5702 146.17 28.5702C147.338 28.6142 148.321 29.4096 148.637 30.4638H142.567C142.468 30.4651 142.381 30.5436 142.359 30.644ZM146.235 33.7816C145.065 33.7816 144.061 32.9408 143.8 31.8206H148.67C148.408 32.9422 147.404 33.7816 146.235 33.7816ZM154.009 34.8578C154.009 35.0037 154.118 35.1275 154.272 35.1275H155.232C155.374 35.1275 155.493 35.0037 155.493 34.8578V31.4394L158.343 35.0477C158.364 35.0807 158.43 35.1261 158.54 35.1261H159.731C159.949 35.1261 160.036 34.8798 159.926 34.7339L156.869 30.9798L159.719 27.6853C159.861 27.5174 159.751 27.2821 159.544 27.2821H158.453C158.355 27.2821 158.289 27.3385 158.245 27.3936L155.493 30.5752V27.5505C155.493 27.4046 155.374 27.2821 155.232 27.2821H154.272C154.119 27.2821 154.009 27.406 154.009 27.5505V34.8578ZM161.128 34.9142C161.128 35.0257 161.215 35.1275 161.336 35.1275H165.331C165.452 35.1275 165.539 35.0271 165.539 34.9142V33.995C165.539 33.8835 165.452 33.7816 165.331 33.7816H162.546V27.4954C162.546 27.3839 162.449 27.2821 162.339 27.2821H161.334C161.214 27.2821 161.126 27.3826 161.126 27.4954V34.9142H161.128ZM166.423 32.1578C166.423 33.8615 167.744 35.239 169.459 35.239C171.184 35.239 172.505 33.8601 172.505 32.1578V27.4954C172.505 27.3839 172.407 27.2821 172.297 27.2821H171.259C171.139 27.2821 171.052 27.3826 171.052 27.4954V32.0904C171.052 33.0317 170.408 33.783 169.457 33.783C168.507 33.783 167.874 33.0317 167.874 32.0794V27.4968C167.874 27.3853 167.787 27.2835 167.666 27.2835H166.628C166.519 27.2835 166.42 27.3839 166.42 27.4968V32.1578H166.423ZM174.384 34.9142C174.384 35.0257 174.471 35.1275 174.592 35.1275H177.234C178.566 35.1275 179.615 34.2193 179.615 32.9642C179.615 31.9335 178.774 31.328 178.195 31.1381C178.708 30.8917 179.396 30.2188 179.396 29.356C179.396 28.1794 178.392 27.2835 177.092 27.2835H174.592C174.471 27.2835 174.384 27.3839 174.384 27.4968V34.9142ZM175.792 30.5766V28.6156H176.96C177.516 28.6156 177.898 29.0078 177.898 29.5679C177.898 30.128 177.516 30.5766 176.96 30.5766H175.792ZM175.792 33.8037V31.8096H176.982C177.55 31.8096 178.095 32.2239 178.095 32.7839C178.095 33.3674 177.658 33.8037 177.112 33.8037H175.792ZM181.12 34.9142C181.12 35.0257 181.207 35.1275 181.328 35.1275H185.324C185.445 35.1275 185.532 35.0271 185.532 34.9142V33.995C185.532 33.8835 185.445 33.7816 185.324 33.7816H182.54V27.4954C182.54 27.3839 182.442 27.2821 182.332 27.2821H181.328C181.207 27.2821 181.12 27.3826 181.12 27.4954V34.9142ZM186.175 35.1261H187.125C187.299 35.1261 187.398 35.0133 187.441 34.9018L187.976 33.6908H191.241L191.776 34.9018C191.853 35.0587 191.929 35.1261 192.093 35.1261H193.043C193.207 35.1261 193.294 34.9803 193.229 34.8344L189.866 27.2931C189.833 27.2257 189.789 27.1693 189.681 27.1693H189.572C189.474 27.1693 189.419 27.2257 189.387 27.2931L185.99 34.8344C185.925 34.9803 186.012 35.1261 186.175 35.1261ZM188.513 32.4482L189.583 29.9835H189.615L190.706 32.4482H188.513ZM194.222 34.9142C194.222 35.0257 194.309 35.1275 194.43 35.1275H195.434C195.544 35.1275 195.642 35.0271 195.642 34.9142V32.056H196.854L198.306 35.0257C198.329 35.0697 198.383 35.1261 198.481 35.1261H199.627C199.814 35.1261 199.889 34.9472 199.814 34.8014L198.317 31.9555C199.266 31.5633 199.933 30.7225 199.933 29.6917C199.933 28.3583 198.863 27.2821 197.553 27.2821H194.43C194.309 27.2821 194.222 27.3826 194.222 27.4954V34.9142ZM195.653 30.8573V28.628H197.432C198.01 28.628 198.513 29.1206 198.513 29.7151C198.513 30.3427 198.01 30.8587 197.432 30.8587H195.653V30.8573ZM201.495 34.9142C201.495 35.0257 201.593 35.1275 201.703 35.1275H202.718C202.827 35.1275 202.926 35.0271 202.926 34.9142V27.4954C202.926 27.3839 202.828 27.2821 202.718 27.2821H201.703C201.593 27.2821 201.495 27.3826 201.495 27.4954V34.9142ZM61.5821 47.9463H62.5314C62.7057 47.9463 62.8049 47.8349 62.8478 47.722L63.3829 46.5124H66.6479L67.1829 47.722C67.2593 47.8789 67.3358 47.9463 67.4994 47.9463H68.45C68.6136 47.9463 68.7008 47.8005 68.6351 47.6546L65.2722 40.1133C65.24 40.0459 65.1957 39.9894 65.0871 39.9894H64.9785C64.8806 39.9894 64.8256 40.0459 64.7921 40.1133L61.397 47.6546C61.3313 47.8005 61.4185 47.9463 61.5821 47.9463ZM63.9192 45.2683L64.9892 42.8037H65.0214L66.1129 45.2683H63.9192ZM69.2358 47.1839C69.4544 47.3972 70.2629 48.0578 71.6373 48.0578C73.1767 48.0578 74.1488 46.9927 74.1488 45.8395C74.1488 44.3945 72.9259 43.7436 71.8666 43.3073C70.9816 42.9372 70.578 42.5794 70.578 42.0523C70.578 41.6931 70.9173 41.2679 71.5394 41.2679C72.1402 41.2679 72.9702 41.828 73.0573 41.8844C73.1887 41.9739 73.3523 41.8844 73.4395 41.7495L73.8538 41.111C73.9302 40.9995 73.898 40.8083 73.7881 40.7408C73.5695 40.5729 72.7181 39.9894 71.6038 39.9894C69.8674 39.9894 69.1473 41.144 69.1473 42.1417C69.1473 43.4642 70.1731 44.1358 71.2002 44.5624C72.1174 44.9436 72.5867 45.3358 72.5867 45.9069C72.5867 46.3885 72.1603 46.7697 71.5931 46.7697C70.8837 46.7697 69.9988 46.1092 69.9451 46.0748C69.8472 45.9963 69.6609 45.9963 69.5737 46.1532L69.1808 46.8482C69.0829 47.0271 69.1379 47.0835 69.2358 47.1839ZM75.1545 47.1839C75.373 47.3972 76.1802 48.0578 77.556 48.0578C79.0953 48.0578 80.0674 46.9927 80.0674 45.8395C80.0674 44.3945 78.8446 43.7436 77.7853 43.3073C76.9003 42.9372 76.4967 42.5794 76.4967 42.0523C76.4967 41.6931 76.8359 41.2679 77.4581 41.2679C78.0588 41.2679 78.8888 41.828 78.976 41.8844C79.1074 41.9739 79.271 41.8844 79.3581 41.7495L79.7738 41.111C79.8502 40.9995 79.818 40.8083 79.7081 40.7408C79.4895 40.5729 78.6381 39.9894 77.5251 39.9894C75.7887 39.9894 75.0686 41.144 75.0686 42.1417C75.0686 43.4642 76.0944 44.1358 77.1215 44.5624C78.0387 44.9436 78.508 45.3358 78.508 45.9069C78.508 46.3885 78.0816 46.7697 77.5144 46.7697C76.8051 46.7697 75.9201 46.1092 75.8651 46.0748C75.7672 45.9963 75.5809 45.9963 75.4937 46.1532L75.1008 46.8482C75.0016 47.0271 75.0552 47.0835 75.1545 47.1839ZM80.9189 44.0353C80.9189 46.2771 82.6553 48.0578 84.8383 48.0578C87.0213 48.0578 88.7684 46.2757 88.7684 44.0353C88.7684 41.7936 87.0213 39.9894 84.8383 39.9894C82.6553 39.9894 80.9189 41.7936 80.9189 44.0353ZM82.3389 44.0353C82.3389 42.6234 83.4639 41.4468 84.8396 41.4468C86.2154 41.4468 87.3511 42.6234 87.3511 44.0353C87.3511 45.4472 86.2154 46.6018 84.8396 46.6018C83.4639 46.6018 82.3389 45.4472 82.3389 44.0353ZM89.8076 47.1839C90.0262 47.3972 90.8347 48.0578 92.2091 48.0578C93.7485 48.0578 94.7206 46.9927 94.7206 45.8395C94.7206 44.3945 93.4977 43.7436 92.4384 43.3073C91.5534 42.9372 91.1498 42.5794 91.1498 42.0523C91.1498 41.6931 91.4877 41.2679 92.1112 41.2679C92.712 41.2679 93.542 41.828 93.6291 41.8844C93.7605 41.9739 93.9241 41.8844 94.0113 41.7495L94.4256 41.111C94.502 40.9995 94.4699 40.8083 94.3599 40.7408C94.1413 40.5729 93.2899 39.9894 92.1756 39.9894C90.4392 39.9894 89.7191 41.144 89.7191 42.1417C89.7191 43.4642 90.7449 44.1358 91.772 44.5624C92.6892 44.9436 93.1585 45.3358 93.1585 45.9069C93.1585 46.3885 92.7334 46.7697 92.1649 46.7697C91.4556 46.7697 90.5706 46.1092 90.5156 46.0748C90.4177 45.9963 90.2313 45.9963 90.1442 46.1532L89.7513 46.8482C89.6534 47.0271 89.7084 47.0835 89.8076 47.1839ZM96.1178 47.733C96.1178 47.8459 96.2157 47.9463 96.3256 47.9463H97.3407C97.4493 47.9463 97.5485 47.8459 97.5485 47.733V40.3142C97.5485 40.2028 97.4506 40.1009 97.3407 40.1009H96.3256C96.217 40.1009 96.1178 40.2014 96.1178 40.3142V47.733ZM96.8392 39.194C97.2763 39.194 97.625 38.8349 97.625 38.3876C97.625 37.939 97.275 37.5812 96.8392 37.5812C96.4021 37.5812 96.0534 37.9404 96.0534 38.3876C96.0521 38.8362 96.4021 39.194 96.8392 39.194ZM98.7272 47.9463H99.6765C99.8508 47.9463 99.95 47.8349 99.9929 47.722L100.528 46.5124H103.792L104.327 47.722C104.403 47.8789 104.48 47.9463 104.643 47.9463H105.592C105.756 47.9463 105.845 47.8005 105.779 47.6546L102.416 40.1133C102.384 40.0459 102.339 39.9894 102.231 39.9894H102.121C102.023 39.9894 101.968 40.0459 101.936 40.1133L98.5408 47.6546C98.4764 47.8005 98.5636 47.9463 98.7272 47.9463ZM101.064 45.2683L102.134 42.8037H102.167L103.259 45.2683H101.064ZM106.381 47.1839C106.599 47.3972 107.408 48.0578 108.784 48.0578C110.323 48.0578 111.295 46.9927 111.295 45.8395C111.295 44.3945 110.072 43.7436 109.013 43.3073C108.128 42.9372 107.724 42.5794 107.724 42.0523C107.724 41.6931 108.064 41.2679 108.686 41.2679C109.287 41.2679 110.117 41.828 110.204 41.8844C110.335 41.9739 110.499 41.8844 110.586 41.7495L111 41.111C111.077 40.9995 111.044 40.8083 110.935 40.7408C110.716 40.5729 109.865 39.9894 108.75 39.9894C107.014 39.9894 106.294 41.144 106.294 42.1417C106.294 43.4642 107.32 44.1358 108.347 44.5624C109.264 44.9436 109.733 45.3358 109.733 45.9069C109.733 46.3885 109.307 46.7697 108.74 46.7697C108.03 46.7697 107.145 46.1092 107.09 46.0748C106.992 45.9963 106.806 45.9963 106.719 46.1532L106.326 46.8482C106.229 47.0271 106.283 47.0835 106.381 47.1839ZM112.692 47.733C112.692 47.8459 112.79 47.9463 112.9 47.9463H113.915C114.024 47.9463 114.123 47.8459 114.123 47.733V40.3142C114.123 40.2028 114.025 40.1009 113.915 40.1009H112.9C112.79 40.1009 112.692 40.2014 112.692 40.3142V47.733ZM113.414 39.194C113.851 39.194 114.2 38.8349 114.2 38.3876C114.2 37.939 113.85 37.5812 113.414 37.5812C112.977 37.5812 112.628 37.9404 112.628 38.3876C112.627 38.8362 112.977 39.194 113.414 39.194ZM117.573 47.733C117.573 47.8459 117.66 47.9463 117.781 47.9463H118.785C118.895 47.9463 118.993 47.8459 118.993 47.733V44.1592L121.515 40.4271C121.603 40.2812 121.515 40.1023 121.341 40.1023H120.216C120.129 40.1023 120.074 40.1587 120.042 40.2028L118.295 42.7803L116.547 40.2028C116.515 40.1573 116.46 40.1023 116.373 40.1023H115.259C115.085 40.1023 114.997 40.2812 115.085 40.4271L117.573 44.1702V47.733ZM121.068 47.9463C120.904 47.9463 120.817 47.8005 120.883 47.6546L124.279 40.1133C124.311 40.0459 124.366 39.9894 124.464 39.9894H124.573C124.681 39.9894 124.726 40.0459 124.759 40.1133L128.122 47.6546C128.188 47.8005 128.101 47.9463 127.936 47.9463H126.986C126.823 47.9463 126.746 47.8789 126.67 47.722L126.135 46.5124H122.87L122.335 47.722C122.29 47.8335 122.193 47.9463 122.018 47.9463H121.068ZM123.403 45.2683H125.598L124.507 42.8037H124.475L123.403 45.2683ZM128.721 47.1839C128.94 47.3972 129.748 48.0578 131.123 48.0578C132.662 48.0578 133.634 46.9927 133.634 45.8395C133.634 44.3945 132.411 43.7436 131.352 43.3073C130.467 42.9372 130.064 42.5794 130.064 42.0523C130.064 41.6931 130.403 41.2679 131.025 41.2679C131.626 41.2679 132.456 41.828 132.543 41.8844C132.674 41.9739 132.838 41.8844 132.925 41.7495L133.341 41.111C133.417 40.9995 133.384 40.8083 133.275 40.7408C133.056 40.5729 132.205 39.9894 131.091 39.9894C129.354 39.9894 128.634 41.144 128.634 42.1417C128.634 43.4642 129.66 44.1358 130.687 44.5624C131.604 44.9436 132.074 45.3358 132.074 45.9069C132.074 46.3885 131.647 46.7697 131.08 46.7697C130.371 46.7697 129.486 46.1092 129.431 46.0748C129.333 45.9963 129.146 45.9963 129.059 46.1532L128.666 46.8482C128.568 47.0271 128.622 47.0835 128.721 47.1839ZM135.032 47.733C135.032 47.8459 135.129 47.9463 135.239 47.9463H136.254C136.363 47.9463 136.462 47.8459 136.462 47.733V40.3142C136.462 40.2028 136.364 40.1009 136.254 40.1009H135.239C135.129 40.1009 135.032 40.2014 135.032 40.3142V47.733Z" fill="white"/>
<path fill-rule="evenodd" clip-rule="evenodd" d="M24.4961 20.0229C24.7308 20.7041 25.0043 21.3716 25.314 22.0211C25.6211 22.6638 25.9671 23.294 26.3492 23.9037C26.6858 24.4417 27.0505 24.9633 27.442 25.4642C27.8027 25.9266 28.1862 26.3739 28.5938 26.8032L28.8647 26.6064L29.2522 26.3326C29.4641 26.1853 29.6665 26.0477 29.8596 25.9197C30.0594 25.7876 30.2606 25.6583 30.4604 25.5317C31.0879 25.1367 31.7181 24.7734 32.3537 24.4362C32.9906 24.0991 33.6315 23.7881 34.2832 23.5018C34.8973 23.2321 35.5222 22.9817 36.1591 22.7505C36.7732 22.5275 37.4021 22.3197 38.0484 22.1257C38.279 21.6344 38.503 21.0661 38.7148 20.4495C38.9522 19.7628 39.1734 19.0156 39.3745 18.2518C39.5918 17.4248 39.7835 16.5784 39.9431 15.7624C40.0986 14.9601 40.222 14.1922 40.3051 13.5014L26.9767 2.58853C26.5798 3.14174 26.2165 3.71147 25.8866 4.29495C25.5259 4.93211 25.2054 5.58853 24.9238 6.25872C24.602 7.02523 24.3325 7.80688 24.1166 8.59816C23.8967 9.40046 23.7305 10.2124 23.6178 11.0284L23.536 11.6188L22.9568 11.6532C22.6859 11.6697 22.4164 11.7138 22.1549 11.7881C21.8948 11.861 21.6414 11.9628 21.3973 12.0908C21.16 12.2161 20.9347 12.3688 20.7242 12.5463C20.5191 12.7183 20.3286 12.9165 20.1557 13.1395L20.1543 13.1408C19.8272 13.5619 19.5965 14.0298 19.4611 14.5156C19.319 15.0206 19.2787 15.5477 19.3351 16.0638C19.3914 16.5771 19.5456 17.0794 19.7923 17.5404C20.031 17.9821 20.3555 18.3853 20.7631 18.7197L20.7644 18.7211C20.975 18.8945 21.1975 19.0404 21.4282 19.1601C21.6642 19.2826 21.9109 19.3803 22.1616 19.4505C22.4191 19.522 22.6792 19.5661 22.9407 19.5826C23.2048 19.5991 23.4703 19.5881 23.7305 19.5495L24.303 19.4656L24.4961 20.0229Z" fill="white"/>
<path fill-rule="evenodd" clip-rule="evenodd" d="M57.0398 27.4321L46.0485 41.4963L34.104 31.6624C34.3199 31.4574 34.5344 31.2454 34.7503 31.0307C35.0064 30.7734 35.2571 30.5106 35.5012 30.2395C35.7774 29.9326 36.0482 29.6174 36.3044 29.2954L34.2126 27.6069C34.0155 27.8491 33.8143 28.0885 33.6092 28.3225C33.3987 28.5619 33.1855 28.7931 32.9682 29.0202C32.7457 29.2541 32.519 29.4812 32.2911 29.6973C32.0631 29.9188 31.8272 30.1349 31.5858 30.3482L31.2761 30.6165L30.9623 30.8794C30.9502 30.8904 30.9368 30.9 30.9247 30.911L29.9258 29.1551L30.2275 28.9335L30.5801 28.6789L30.9408 28.4285L31.3216 28.1766L31.8339 27.8463C32.4627 27.4514 33.1037 27.0867 33.758 26.7509C34.4124 26.4179 35.0788 26.1165 35.7506 25.8454C36.4277 25.5716 37.1116 25.3335 37.8075 25.1243C38.5021 24.9165 39.2127 24.739 39.9328 24.5904L40.5509 24.4651L40.5 23.8225C40.4825 23.5707 40.4852 23.3174 40.5107 23.0684C40.5362 22.8207 40.5845 22.5771 40.6582 22.3376C40.7266 22.1009 40.8204 21.8697 40.9371 21.6454C41.0484 21.4294 41.1825 21.2188 41.338 21.0179C41.6679 20.5996 42.0608 20.2665 42.4939 20.0216C42.9431 19.7697 43.4325 19.6129 43.9313 19.5564C44.4328 19.5014 44.9477 19.544 45.4398 19.6913C45.9118 19.8317 46.3677 20.0684 46.7753 20.4069C46.9939 20.5844 47.1856 20.7812 47.3559 20.9918C47.5289 21.2106 47.6777 21.4418 47.7971 21.684C47.9218 21.9317 48.0196 22.1945 48.0907 22.4615C48.1618 22.7298 48.2047 23.0078 48.2194 23.2858L48.2248 23.4468V23.6078L48.2074 24.2477L48.8255 24.3413C49.3954 24.4266 49.9586 24.5312 50.511 24.6564C51.0742 24.7817 51.6239 24.9248 52.1616 25.0858C52.7047 25.2468 53.2424 25.4298 53.772 25.6294C54.3044 25.8303 54.8273 26.0477 55.3368 26.283C55.5246 26.3945 55.715 26.5115 55.9027 26.634C56.0931 26.7564 56.2862 26.8858 56.4779 27.022L56.8279 27.2725L57.0398 27.4321Z" fill="white"/>
<path fill-rule="evenodd" clip-rule="evenodd" d="M30.9252 30.9082C30.8032 31.0073 30.6771 31.1092 30.5444 31.2124C30.3969 31.3266 30.2453 31.4408 30.0885 31.5592C29.9383 31.6706 29.7894 31.7807 29.6393 31.8839C29.4918 31.9885 29.3403 32.0945 29.1834 32.1991L28.8669 32.4096L28.5478 32.6119C28.0557 32.9188 27.5234 33.2078 26.9575 33.4761C26.3715 33.7541 25.7561 34.0101 25.1165 34.2413C24.4501 34.4862 23.7568 34.705 23.0582 34.8949C22.3382 35.0931 21.6034 35.2624 20.8699 35.4027L20.241 35.5252L20.2947 36.1761C20.3148 36.428 20.3121 36.6812 20.2866 36.9303C20.2611 37.1807 20.2129 37.4271 20.1418 37.6665C20.0707 37.8977 19.9769 38.1303 19.8629 38.356C19.7489 38.5748 19.6148 38.7853 19.4566 38.9835V38.9862C19.1294 39.4046 18.7339 39.7376 18.3035 39.9826C17.8543 40.2344 17.3648 40.3913 16.866 40.4463C16.3619 40.5041 15.8496 40.4615 15.3575 40.3142C14.8829 40.1738 14.4296 39.9371 14.022 39.6014L14.0193 39.5986C13.8008 39.4197 13.609 39.2216 13.4414 39.011C13.2671 38.7922 13.1196 38.561 12.9976 38.3216C12.8756 38.0738 12.7763 37.811 12.7066 37.544C12.6355 37.2729 12.5926 36.9977 12.5779 36.7197L12.5725 36.556V36.3977L12.59 35.7578L11.9718 35.6642C11.4019 35.5789 10.8388 35.4743 10.2863 35.3491C9.72315 35.2238 9.17339 35.0807 8.63301 34.9197C8.09264 34.7587 7.55494 34.5757 7.02529 34.3761C6.49296 34.1752 5.97002 33.9578 5.4578 33.7225C5.27008 33.611 5.07967 33.494 4.89195 33.3688C4.70155 33.2463 4.50846 33.1183 4.31671 32.9807L3.97211 32.733L3.75488 32.5679L14.7461 18.5037L26.6907 28.3349C26.4909 28.5096 26.2951 28.6858 26.0993 28.866C25.854 29.0945 25.6153 29.3243 25.3847 29.5555C25.0655 29.8803 24.7531 30.2133 24.4594 30.5573C24.3455 30.6894 24.2369 30.8229 24.1269 30.9578L26.2616 32.5665L26.751 32.0257C26.9361 31.8206 27.1265 31.6197 27.3169 31.4216C27.514 31.2206 27.7124 31.028 27.9095 30.8436C28.1093 30.6564 28.3198 30.4665 28.5411 30.2738C28.757 30.0839 28.9849 29.894 29.2209 29.7041L29.5454 29.444L29.8672 29.1963L29.9249 29.1523L30.9252 30.9082Z" fill="white"/>
<path fill-rule="evenodd" clip-rule="evenodd" d="M37.8361 48.3468C38.107 48.3317 38.3765 48.2862 38.638 48.2133C38.8981 48.1404 39.1515 48.0385 39.3955 47.9106C39.6329 47.7853 39.8595 47.6326 40.07 47.455C40.2752 47.2817 40.4656 47.0835 40.6385 46.8605C40.9657 46.4394 41.1964 45.9716 41.3331 45.4858C41.4753 44.9807 41.5155 44.4537 41.4592 43.9376C41.4029 43.4243 41.2486 42.9206 41.0019 42.461C40.7633 42.0179 40.4388 41.6147 40.0298 41.2803C39.8193 41.1083 39.5967 40.9624 39.3674 40.8427C39.1314 40.7202 38.8847 40.6225 38.6339 40.5523C38.3778 40.4807 38.1163 40.4367 37.8549 40.4202C37.5907 40.4037 37.3266 40.4147 37.0651 40.4532L36.4939 40.5372L36.3008 39.9771C36.0675 39.3014 35.798 38.6395 35.4909 37.994C35.1852 37.3541 34.8446 36.7294 34.4665 36.1252C34.1366 35.5968 33.7786 35.0821 33.3924 34.5839C33.0398 34.1284 32.6643 33.6881 32.2674 33.2642C31.4562 33.9165 30.6905 34.4683 29.9464 34.9445C29.1646 35.4427 28.4003 35.8596 27.6239 36.2202C26.8342 36.5876 26.031 36.8959 25.1822 37.1752C24.3589 37.4463 23.4927 37.6885 22.5541 37.928C22.2765 38.6752 22.0083 39.4569 21.7616 40.2537C21.5243 41.0216 21.3057 41.8046 21.118 42.5876C20.9477 43.2936 20.8029 43.9982 20.6902 44.6849C20.5897 45.3 20.5146 45.9028 20.4717 46.4821L33.8188 57.4101C34.2157 56.8569 34.5791 56.2872 34.909 55.7037C35.2697 55.0651 35.5901 54.4101 35.8717 53.7399C36.1935 52.9734 36.463 52.1917 36.6789 51.4005C36.8988 50.5982 37.0638 49.7862 37.1777 48.9702L37.2595 48.3812L37.8361 48.3468Z" fill="white"/>
</svg>
