<svg width="225" height="60" viewBox="0 0 225 60" fill="none" xmlns="http://www.w3.org/2000/svg">
<path fill-rule="evenodd" clip-rule="evenodd" d="M62.3886 22.0376C62.3886 22.1835 62.4986 22.306 62.6501 22.306H63.6115C63.7537 22.306 63.873 22.1821 63.873 22.0376V18.6193L66.7224 22.2275C66.7452 22.2619 66.8095 22.306 66.9195 22.306H68.1102C68.3288 22.306 68.4159 22.0596 68.306 21.9138L65.2487 18.1596L68.0981 14.8651C68.2403 14.6972 68.1303 14.4619 67.9238 14.4619H66.8323C66.7344 14.4619 66.6687 14.5183 66.6245 14.5748L63.873 17.7564V14.7316C63.873 14.5858 63.7523 14.4633 63.6115 14.4633H62.6501C62.4973 14.4633 62.3886 14.5872 62.3886 14.7316V22.0376ZM213.483 34.9775V27.5587C213.483 27.4472 213.385 27.3454 213.275 27.3454H212.26C212.15 27.3454 212.053 27.4459 212.053 27.5587V34.9775C212.053 35.089 212.15 35.1908 212.26 35.1908H213.275C213.384 35.1908 213.483 35.089 213.483 34.9775ZM214.792 27.4349V34.9761C214.792 35.089 214.89 35.1894 215 35.1894H215.993C216.113 35.1894 216.201 35.089 216.201 34.9761V30.1583H216.212L220.776 35.3023H221.038C221.148 35.3023 221.246 35.2128 221.246 35.1V27.5587C221.246 27.4459 221.148 27.3454 221.038 27.3454H220.033C219.914 27.3454 219.826 27.4459 219.826 27.5587V32.1867H219.815L215.272 27.2339H215C214.89 27.2339 214.792 27.3234 214.792 27.4349ZM204.253 27.4349V34.9761C204.253 35.089 204.35 35.1894 204.46 35.1894H205.454C205.573 35.1894 205.662 35.089 205.662 34.9761V30.1583H205.673L210.237 35.3023H210.498C210.607 35.3023 210.706 35.2128 210.706 35.1V27.5587C210.706 27.4459 210.608 27.3454 210.498 27.3454H209.494C209.375 27.3454 209.286 27.4459 209.286 27.5587V32.1867H209.276L204.733 27.2339H204.46C204.35 27.2339 204.253 27.3234 204.253 27.4349ZM69.5074 22.094C69.5074 22.2055 69.6053 22.3073 69.7152 22.3073H70.7303C70.8389 22.3073 70.9381 22.2069 70.9381 22.094V14.6752C70.9381 14.5624 70.8402 14.4619 70.7303 14.4619H69.7152C69.6066 14.4619 69.5074 14.5624 69.5074 14.6752V22.094ZM70.2274 13.555C70.6646 13.555 71.0132 13.1959 71.0132 12.7486C71.0132 12.3 70.6632 11.9422 70.2274 11.9422C69.7903 11.9422 69.4417 12.3 69.4417 12.7486C69.4417 13.1959 69.7917 13.555 70.2274 13.555ZM75.6218 22.3514V23.3037C75.6218 23.3601 75.6433 23.4826 75.8082 23.506C76.3754 23.55 76.606 23.7867 76.606 24.055C76.606 24.2794 76.4424 24.4693 76.2239 24.4693C76.126 24.4693 75.9839 24.4362 75.8967 24.3344C75.8417 24.267 75.7331 24.256 75.6674 24.3234L75.4488 24.5133C75.351 24.6028 75.3295 24.7266 75.4167 24.8271C75.603 25.0514 75.9195 25.2193 76.2467 25.2193C76.8903 25.2193 77.4038 24.6922 77.4038 24.0427C77.4038 23.4151 77.011 22.9775 76.3445 22.8881V22.4174C77.306 22.4064 78.2338 22.0706 78.9767 21.3303C79.0531 21.2518 79.0746 21.106 78.9874 21.0275L78.3103 20.3105C78.2446 20.2431 78.1239 20.2321 78.0367 20.3105C77.5782 20.6917 77.0217 20.9491 76.366 20.9491C74.9688 20.9491 73.9202 19.7615 73.9202 18.3605C73.9202 16.9486 74.9581 15.75 76.3553 15.75C76.9667 15.75 77.5782 15.9963 78.0367 16.4105C78.1239 16.5 78.2339 16.5 78.3103 16.4105L78.9767 15.7046C79.0639 15.6151 79.0639 15.4803 78.966 15.3908C78.2231 14.7069 77.4266 14.3491 76.3231 14.3491C74.1388 14.3491 72.3809 16.1532 72.3809 18.3936C72.3782 20.3904 73.7768 22.0266 75.6218 22.3514ZM80.4155 22.094C80.4155 22.2055 80.5134 22.3073 80.6233 22.3073H81.6383C81.747 22.3073 81.8462 22.2069 81.8462 22.094V14.6752C81.8462 14.5624 81.7483 14.4619 81.6383 14.4619H80.6233C80.5134 14.4619 80.4155 14.5624 80.4155 14.6752V22.094ZM81.1355 13.555C81.5726 13.555 81.9213 13.1959 81.9213 12.7486C81.9213 12.3 81.5713 11.9422 81.1355 11.9422C80.6984 11.9422 80.3498 12.3 80.3498 12.7486C80.3498 13.1959 80.6984 13.555 81.1355 13.555ZM83.832 22.0376C83.832 22.1835 83.942 22.306 84.0948 22.306H85.0563C85.1984 22.306 85.3177 22.1821 85.3177 22.0376V18.6193L88.1671 22.2275C88.1886 22.2619 88.2543 22.306 88.3642 22.306H89.5549C89.7735 22.306 89.8606 22.0596 89.752 21.9138L86.6948 18.1596L89.5442 14.8651C89.6863 14.6972 89.5764 14.4619 89.3685 14.4619H88.2771C88.1792 14.4619 88.1135 14.5183 88.0692 14.5748L85.3177 17.7564V14.7316C85.3177 14.5858 85.1984 14.4633 85.0563 14.4633H84.0948C83.942 14.4633 83.832 14.5872 83.832 14.7316V22.0376V22.0376ZM95.7779 22.2963C95.8101 22.3638 95.8651 22.4188 95.9643 22.4188H96.0729C96.1708 22.4188 96.2258 22.3624 96.258 22.2963L99.6424 14.755C99.7081 14.6092 99.6209 14.4633 99.4573 14.4633H98.3431C98.2452 14.4633 98.1795 14.5307 98.158 14.5872L96.0622 19.405H95.9858L93.8886 14.5872C93.8672 14.5307 93.8015 14.4633 93.7036 14.4633H92.5893C92.4257 14.4633 92.3386 14.6092 92.4029 14.755L95.7779 22.2963ZM100.134 17.8252C100.112 18.0151 100.09 18.2064 100.09 18.3963C100.09 20.6381 101.827 22.4188 104.01 22.4188C106.194 22.4188 107.94 20.6367 107.94 18.3963C107.94 16.1546 106.193 14.3518 104.01 14.3518C102.874 14.3518 102.077 14.711 101.335 15.3936C101.237 15.483 101.237 15.6179 101.324 15.7073L101.99 16.4133C102.067 16.5027 102.175 16.5027 102.264 16.4133C102.722 15.9991 103.334 15.7528 103.945 15.7528C105.113 15.7968 106.096 16.5922 106.412 17.6463H100.342C100.243 17.645 100.156 17.7234 100.134 17.8252ZM104.011 20.9628C102.843 20.9628 101.839 20.122 101.576 19.0018H106.446C106.183 20.122 105.179 20.9628 104.011 20.9628ZM111.238 18.3963C111.238 20.6381 112.975 22.4188 115.158 22.4188C117.342 22.4188 119.088 20.6367 119.088 18.3963C119.088 16.1546 117.341 14.3518 115.158 14.3518C112.975 14.3505 111.238 16.1546 111.238 18.3963ZM112.658 18.3963C112.658 16.9844 113.783 15.8078 115.159 15.8078C116.535 15.8078 117.671 16.9844 117.671 18.3963C117.671 19.8083 116.535 20.9628 115.159 20.9628C113.783 20.9628 112.658 19.8083 112.658 18.3963ZM120.52 22.094C120.52 22.2055 120.607 22.3073 120.728 22.3073H121.732C121.841 22.3073 121.94 22.2069 121.94 22.094V19.2372H123.152L124.604 22.2069C124.626 22.2523 124.681 22.3073 124.779 22.3073H125.925C126.11 22.3073 126.186 22.1284 126.11 21.9826L124.614 19.1367C125.563 18.7445 126.229 17.9037 126.229 16.8729C126.229 15.5394 125.159 14.4633 123.849 14.4633H120.726C120.606 14.4633 120.519 14.5638 120.519 14.6766V22.094H120.52ZM121.951 18.0372V15.8078H123.73C124.308 15.8078 124.811 16.3005 124.811 16.895C124.811 17.5225 124.308 18.0385 123.73 18.0385H121.951V18.0372ZM128.817 22.094C128.817 22.2055 128.915 22.3073 129.025 22.3073H130.04C130.15 22.3073 130.248 22.2069 130.248 22.094V15.8078H131.919C132.039 15.8078 132.125 15.7073 132.125 15.5945V14.6752C132.125 14.5624 132.038 14.4619 131.919 14.4619H127.147C127.027 14.4619 126.939 14.5624 126.939 14.6752V15.5945C126.939 15.7073 127.026 15.8078 127.147 15.8078H128.817V22.094ZM132.039 22.3073C131.876 22.3073 131.787 22.1615 131.854 22.0156L135.249 14.4743C135.282 14.4069 135.337 14.3518 135.435 14.3518H135.543C135.652 14.3518 135.696 14.4083 135.728 14.4743L139.091 22.0156C139.157 22.1615 139.07 22.3073 138.905 22.3073H137.955C137.792 22.3073 137.715 22.2399 137.639 22.083L137.104 20.8734H133.839L133.304 22.083C133.26 22.1945 133.162 22.3073 132.987 22.3073H132.039ZM134.375 19.6294H136.57L135.479 17.1647H135.447L134.375 19.6294ZM142.5 22.094C142.5 22.2055 142.587 22.3073 142.707 22.3073H145.35C146.682 22.3073 147.73 21.3991 147.73 20.144C147.73 19.1133 146.89 18.5078 146.31 18.3179C146.824 18.0716 147.512 17.3986 147.512 16.5358C147.512 15.3592 146.508 14.4633 145.208 14.4633H142.707C142.587 14.4633 142.5 14.5638 142.5 14.6766V22.094ZM143.908 17.7578V15.7968H145.075C145.632 15.7968 146.014 16.189 146.014 16.7491C146.014 17.3092 145.632 17.7578 145.075 17.7578H143.908ZM143.908 20.9849V18.9908H145.097C145.664 18.9908 146.211 19.405 146.211 19.9651C146.211 20.5472 145.774 20.9849 145.228 20.9849H143.908ZM149.236 22.094C149.236 22.2055 149.334 22.3073 149.444 22.3073H150.459C150.568 22.3073 150.667 22.2069 150.667 22.094V14.6752C150.667 14.5624 150.569 14.4619 150.459 14.4619H149.444C149.335 14.4619 149.236 14.5624 149.236 14.6752V22.094ZM149.956 13.555C150.393 13.555 150.742 13.1959 150.742 12.7486C150.742 12.3 150.392 11.9422 149.956 11.9422C149.519 11.9422 149.171 12.3 149.171 12.7486C149.171 13.1959 149.519 13.555 149.956 13.555ZM151.933 22.094C151.933 22.2055 152.031 22.3073 152.141 22.3073H156.803C156.924 22.3073 157.011 22.2069 157.011 22.094V21.1638C157.011 21.0509 156.924 20.9505 156.803 20.9505H154.018V20.9271L157.228 14.8197V14.6739C157.228 14.561 157.13 14.4605 157.02 14.4605H152.457C152.347 14.4605 152.249 14.561 152.249 14.6739V15.6041C152.249 15.7156 152.347 15.8174 152.457 15.8174H155.187V15.8615L151.934 21.8904V22.094H151.933ZM158.527 22.094C158.527 22.2055 158.625 22.3073 158.735 22.3073H159.729C159.849 22.3073 159.936 22.2069 159.936 22.094V17.2761H159.947L164.512 22.4188H164.773C164.883 22.4188 164.981 22.3294 164.981 22.2165V14.6752C164.981 14.5624 164.883 14.4619 164.773 14.4619H163.769C163.648 14.4619 163.561 14.5624 163.561 14.6752V19.3032H163.55L159.007 14.3505H158.735C158.625 14.3505 158.527 14.4399 158.527 14.5514V22.094ZM166.968 22.094C166.968 22.2055 167.055 22.3073 167.176 22.3073H171.62C171.74 22.3073 171.827 22.2069 171.827 22.094V21.1748C171.827 21.0619 171.74 20.9615 171.62 20.9615H168.388V19.0005H171.085C171.193 19.0005 171.292 18.911 171.292 18.7872V17.8569C171.292 17.7454 171.195 17.6436 171.085 17.6436H168.388V15.805H171.62C171.74 15.805 171.827 15.7046 171.827 15.5917V14.6725C171.827 14.5596 171.74 14.4592 171.62 14.4592H167.176C167.055 14.4592 166.968 14.5596 166.968 14.6725V22.094ZM172.995 21.545C173.214 21.7583 174.022 22.4188 175.397 22.4188C176.936 22.4188 177.908 21.3537 177.908 20.2005C177.908 18.7555 176.685 18.1046 175.626 17.6683C174.741 17.2982 174.338 16.9404 174.338 16.4133C174.338 16.0541 174.675 15.6289 175.299 15.6289C175.9 15.6289 176.73 16.189 176.817 16.2454C176.948 16.3349 177.112 16.2454 177.199 16.1105L177.615 15.472C177.691 15.3605 177.658 15.1693 177.549 15.1018C177.33 14.9339 176.479 14.3518 175.366 14.3518C173.63 14.3518 172.909 15.5064 172.909 16.5028C172.909 17.8252 173.935 18.4968 174.962 18.9234C175.88 19.3046 176.349 19.6968 176.349 20.2679C176.349 20.7495 175.924 21.1307 175.355 21.1307C174.646 21.1307 173.761 20.4702 173.706 20.4358C173.608 20.3573 173.422 20.3573 173.335 20.5142L172.942 21.2092C172.842 21.3881 172.897 21.4445 172.995 21.545ZM61.9958 34.3651C62.2143 34.5784 63.0215 35.239 64.3973 35.239C65.9366 35.239 66.9088 34.1739 66.9088 33.0206C66.9088 31.5757 65.6859 30.9248 64.6266 30.4885C63.7416 30.1183 63.338 29.7605 63.338 29.2335C63.338 28.8743 63.6772 28.4491 64.2994 28.4491C64.9001 28.4491 65.7301 29.0092 65.8173 29.0656C65.9487 29.155 66.1123 29.0656 66.1994 28.9307L66.6138 28.2922C66.6902 28.1807 66.658 27.9894 66.5481 27.922C66.3295 27.7541 65.478 27.1706 64.3638 27.1706C62.6273 27.1706 61.9073 28.3252 61.9073 29.3216C61.9073 30.644 62.933 31.317 63.9602 31.7422C64.8773 32.1234 65.3466 32.5156 65.3466 33.0867C65.3466 33.5683 64.9202 33.9495 64.353 33.9495C63.6437 33.9495 62.7587 33.289 62.7038 33.2546C62.6059 33.1761 62.4195 33.1761 62.3323 33.333L61.9395 34.028C61.8429 34.2083 61.8965 34.2633 61.9958 34.3651ZM68.1973 32.1578C68.1973 33.8615 69.5181 35.239 71.2331 35.239C72.9588 35.239 74.2796 33.8601 74.2796 32.1578V27.4954C74.2796 27.3839 74.1817 27.2821 74.0717 27.2821H73.0339C72.9146 27.2821 72.8261 27.3826 72.8261 27.4954V32.0904C72.8261 33.0317 72.1824 33.783 71.2318 33.783C70.2824 33.783 69.6482 33.0317 69.6482 32.0794V27.4968C69.6482 27.3853 69.561 27.2835 69.4403 27.2835H68.4025C68.2939 27.2835 68.1947 27.3839 68.1947 27.4968V32.1578H68.1973ZM76.1568 34.9142C76.1568 35.0257 76.244 35.1275 76.3647 35.1275H79.0062C80.3377 35.1275 81.3863 34.2193 81.3863 32.9642C81.3863 31.9335 80.5455 31.328 79.9676 31.1381C80.4812 30.8917 81.169 30.2188 81.169 29.356C81.169 28.1794 80.1647 27.2835 78.8654 27.2835H76.3647C76.244 27.2835 76.1568 27.3839 76.1568 27.4968V34.9142V34.9142ZM77.5647 30.5766V28.6156H78.7327C79.2891 28.6156 79.6713 29.0078 79.6713 29.5679C79.6713 30.128 79.2891 30.5766 78.7327 30.5766H77.5647ZM77.5647 33.8037V31.8096H78.7554C79.3226 31.8096 79.8697 32.2239 79.8697 32.7839C79.8697 33.3674 79.4326 33.8037 78.8869 33.8037H77.5647ZM84.3241 34.9142C84.3241 35.0257 84.4113 35.1275 84.532 35.1275H85.5363C85.6462 35.1275 85.7441 35.0271 85.7441 34.9142V31.339L88.2663 27.6069C88.3535 27.461 88.2663 27.2821 88.0907 27.2821H86.9657C86.8785 27.2821 86.8235 27.3385 86.7914 27.3826L85.0442 29.9601L83.297 27.3826C83.2648 27.3372 83.2099 27.2821 83.1227 27.2821H82.0098C81.8355 27.2821 81.7483 27.461 81.8355 27.6069L84.3255 31.35V34.9142H84.3241ZM89.2264 34.9142C89.2264 35.0257 89.3136 35.1275 89.4342 35.1275H93.8779C93.9973 35.1275 94.0858 35.0271 94.0858 34.9142V33.995C94.0858 33.8835 93.9986 33.7816 93.8779 33.7816H90.6464V31.8206H93.3429C93.4529 31.8206 93.5507 31.7312 93.5507 31.6073V30.6771C93.5507 30.5642 93.4529 30.4638 93.3429 30.4638H90.6464V28.6266H93.8779C93.9973 28.6266 94.0858 28.5261 94.0858 28.4133V27.494C94.0858 27.3826 93.9986 27.2807 93.8779 27.2807H89.4342C89.3149 27.2807 89.2264 27.3812 89.2264 27.494V34.9142ZM95.6465 34.8578C95.6465 35.0037 95.7552 35.1275 95.908 35.1275H96.8694C97.0116 35.1275 97.1309 35.0037 97.1309 34.8578V31.4394L99.9803 35.0477C100.002 35.0807 100.067 35.1261 100.177 35.1261H101.368C101.587 35.1261 101.674 34.8798 101.565 34.7339L98.508 30.9798L101.357 27.6853C101.499 27.5174 101.39 27.2821 101.183 27.2821H100.092C99.9937 27.2821 99.928 27.3385 99.8837 27.3936L97.1322 30.5752V27.5505C97.1322 27.4046 97.0129 27.2821 96.8708 27.2821H95.9094C95.7565 27.2821 95.6479 27.406 95.6479 27.5505V34.8578H95.6465ZM103.825 34.9142C103.825 35.0257 103.922 35.1275 104.032 35.1275H105.047C105.157 35.1275 105.255 35.0271 105.255 34.9142V28.628H106.926C107.047 28.628 107.134 28.5275 107.134 28.4147V27.4954C107.134 27.3839 107.047 27.2821 106.926 27.2821H102.155C102.034 27.2821 101.947 27.3826 101.947 27.4954V28.4147C101.947 28.5275 102.034 28.628 102.155 28.628H103.826V34.9142H103.825ZM108.268 34.9142C108.268 35.0257 108.355 35.1275 108.476 35.1275H112.472C112.593 35.1275 112.68 35.0271 112.68 34.9142V33.995C112.68 33.8835 112.593 33.7816 112.472 33.7816H109.687V27.4954C109.687 27.3839 109.589 27.2821 109.479 27.2821H108.476C108.357 27.2821 108.268 27.3826 108.268 27.4954V34.9142ZM113.28 30.644C113.259 30.8353 113.236 31.0252 113.236 31.2151C113.236 33.4555 114.973 35.2376 117.156 35.2376C119.339 35.2376 121.086 33.4555 121.086 31.2151C121.086 28.9734 119.339 27.1693 117.156 27.1693C116.02 27.1693 115.223 27.5284 114.481 28.211C114.383 28.3005 114.383 28.4353 114.47 28.5248L115.136 29.2307C115.213 29.3202 115.321 29.3202 115.41 29.2307C115.868 28.8165 116.48 28.5702 117.091 28.5702C118.259 28.6142 119.242 29.4096 119.558 30.4638H113.488C113.389 30.4651 113.302 30.5436 113.28 30.644ZM117.157 33.7816C115.988 33.7816 114.983 32.9408 114.722 31.8206H119.592C119.329 32.9422 118.325 33.7816 117.157 33.7816ZM122.518 34.9142C122.518 35.0257 122.605 35.1275 122.726 35.1275H123.73C123.84 35.1275 123.938 35.0271 123.938 34.9142V32.056H125.15L126.602 35.0257C126.624 35.0697 126.679 35.1261 126.776 35.1261H127.923C128.108 35.1261 128.184 34.9472 128.108 34.8014L126.612 31.9555C127.562 31.5633 128.227 30.7225 128.227 29.6917C128.227 28.3583 127.157 27.2821 125.847 27.2821H122.724C122.604 27.2821 122.516 27.3826 122.516 27.4954V34.9142H122.518ZM123.947 30.8573V28.628H125.727C126.306 28.628 126.807 29.1206 126.807 29.7151C126.807 30.3427 126.304 30.8587 125.727 30.8587H123.947V30.8573ZM129.789 34.9142C129.789 35.0257 129.887 35.1275 129.997 35.1275H131.012C131.121 35.1275 131.22 35.0271 131.22 34.9142V27.4954C131.22 27.3839 131.121 27.2821 131.012 27.2821H129.997C129.887 27.2821 129.789 27.3826 129.789 27.4954V34.9142ZM130.509 26.3752C130.947 26.3752 131.295 26.0161 131.295 25.5688C131.295 25.1202 130.945 24.7624 130.509 24.7624C130.072 24.7624 129.724 25.1202 129.724 25.5688C129.724 26.0161 130.074 26.3752 130.509 26.3752ZM138.001 35.1151C138.033 35.1826 138.088 35.2376 138.186 35.2376H138.295C138.393 35.2376 138.447 35.1812 138.48 35.1151L141.864 27.5739C141.93 27.428 141.843 27.2821 141.678 27.2821H140.565C140.467 27.2821 140.401 27.3495 140.38 27.406L138.284 32.2239H138.207L136.112 27.406C136.09 27.3495 136.025 27.2821 135.925 27.2821H134.811C134.647 27.2821 134.56 27.428 134.626 27.5739L138.001 35.1151ZM142.358 30.644C142.336 30.8353 142.313 31.0252 142.313 31.2151C142.313 33.4555 144.05 35.2376 146.233 35.2376C148.416 35.2376 150.163 33.4555 150.163 31.2151C150.163 28.9734 148.416 27.1693 146.233 27.1693C145.097 27.1693 144.3 27.5284 143.558 28.211C143.46 28.3005 143.46 28.4353 143.547 28.5248L144.213 29.2307C144.29 29.3202 144.398 29.3202 144.487 29.2307C144.945 28.8165 145.557 28.5702 146.168 28.5702C147.336 28.6142 148.319 29.4096 148.636 30.4638H142.565C142.466 30.4651 142.379 30.5436 142.358 30.644ZM146.233 33.7816C145.063 33.7816 144.059 32.9408 143.798 31.8206H148.668C148.406 32.9422 147.402 33.7816 146.233 33.7816ZM154.007 34.8578C154.007 35.0037 154.116 35.1275 154.27 35.1275H155.23C155.372 35.1275 155.491 35.0037 155.491 34.8578V31.4394L158.341 35.0477C158.362 35.0807 158.428 35.1261 158.538 35.1261H159.729C159.947 35.1261 160.034 34.8798 159.924 34.7339L156.867 30.9798L159.717 27.6853C159.859 27.5174 159.749 27.2821 159.542 27.2821H158.451C158.353 27.2821 158.287 27.3385 158.243 27.3936L155.491 30.5752V27.5505C155.491 27.4046 155.372 27.2821 155.23 27.2821H154.27C154.117 27.2821 154.007 27.406 154.007 27.5505V34.8578V34.8578ZM161.126 34.9142C161.126 35.0257 161.213 35.1275 161.334 35.1275H165.329C165.45 35.1275 165.537 35.0271 165.537 34.9142V33.995C165.537 33.8835 165.45 33.7816 165.329 33.7816H162.544V27.4954C162.544 27.3839 162.447 27.2821 162.337 27.2821H161.332C161.212 27.2821 161.124 27.3826 161.124 27.4954V34.9142H161.126ZM166.421 32.1578C166.421 33.8615 167.742 35.239 169.457 35.239C171.182 35.239 172.503 33.8601 172.503 32.1578V27.4954C172.503 27.3839 172.405 27.2821 172.295 27.2821H171.258C171.137 27.2821 171.05 27.3826 171.05 27.4954V32.0904C171.05 33.0317 170.406 33.783 169.455 33.783C168.505 33.783 167.872 33.0317 167.872 32.0794V27.4968C167.872 27.3853 167.785 27.2835 167.664 27.2835H166.626C166.518 27.2835 166.418 27.3839 166.418 27.4968V32.1578H166.421ZM174.382 34.9142C174.382 35.0257 174.469 35.1275 174.59 35.1275H177.233C178.564 35.1275 179.613 34.2193 179.613 32.9642C179.613 31.9335 178.772 31.328 178.193 31.1381C178.706 30.8917 179.394 30.2188 179.394 29.356C179.394 28.1794 178.39 27.2835 177.09 27.2835H174.59C174.469 27.2835 174.382 27.3839 174.382 27.4968V34.9142ZM175.79 30.5766V28.6156H176.958C177.514 28.6156 177.896 29.0078 177.896 29.5679C177.896 30.128 177.514 30.5766 176.958 30.5766H175.79ZM175.79 33.8037V31.8096H176.98C177.548 31.8096 178.093 32.2239 178.093 32.7839C178.093 33.3674 177.656 33.8037 177.11 33.8037H175.79ZM181.118 34.9142C181.118 35.0257 181.206 35.1275 181.326 35.1275H185.322C185.443 35.1275 185.53 35.0271 185.53 34.9142V33.995C185.53 33.8835 185.443 33.7816 185.322 33.7816H182.538V27.4954C182.538 27.3839 182.44 27.2821 182.331 27.2821H181.326C181.206 27.2821 181.118 27.3826 181.118 27.4954V34.9142ZM186.173 35.1261H187.123C187.297 35.1261 187.396 35.0133 187.439 34.9018L187.974 33.6908H191.239L191.774 34.9018C191.851 35.0587 191.927 35.1261 192.091 35.1261H193.042C193.205 35.1261 193.292 34.9803 193.227 34.8344L189.864 27.2931C189.831 27.2257 189.787 27.1693 189.679 27.1693H189.57C189.472 27.1693 189.417 27.2257 189.385 27.2931L185.988 34.8344C185.923 34.9803 186.01 35.1261 186.173 35.1261ZM188.511 32.4482L189.581 29.9835H189.613L190.704 32.4482H188.511ZM194.22 34.9142C194.22 35.0257 194.307 35.1275 194.428 35.1275H195.432C195.542 35.1275 195.64 35.0271 195.64 34.9142V32.056H196.852L198.304 35.0257C198.327 35.0697 198.381 35.1261 198.479 35.1261H199.625C199.812 35.1261 199.887 34.9472 199.812 34.8014L198.315 31.9555C199.265 31.5633 199.931 30.7225 199.931 29.6917C199.931 28.3583 198.861 27.2821 197.551 27.2821H194.428C194.307 27.2821 194.22 27.3826 194.22 27.4954V34.9142ZM195.651 30.8573V28.628H197.43C198.008 28.628 198.511 29.1206 198.511 29.7151C198.511 30.3427 198.008 30.8587 197.43 30.8587H195.651V30.8573ZM201.493 34.9142C201.493 35.0257 201.591 35.1275 201.701 35.1275H202.716C202.825 35.1275 202.924 35.0271 202.924 34.9142V27.4954C202.924 27.3839 202.826 27.2821 202.716 27.2821H201.701C201.591 27.2821 201.493 27.3826 201.493 27.4954V34.9142ZM61.5801 47.9463H62.5294C62.7038 47.9463 62.803 47.8349 62.8459 47.722L63.3809 46.5124H66.6459L67.181 47.722C67.2574 47.8789 67.3338 47.9463 67.4974 47.9463H68.4481C68.6117 47.9463 68.6988 47.8005 68.6331 47.6546L65.2702 40.1133C65.238 40.0459 65.1938 39.9894 65.0852 39.9894H64.9765C64.8787 39.9894 64.8237 40.0459 64.7902 40.1133L61.3951 47.6546C61.3294 47.8005 61.4165 47.9463 61.5801 47.9463ZM63.9173 45.2683L64.9873 42.8037H65.0195L66.1109 45.2683H63.9173ZM69.2339 47.1839C69.4524 47.3972 70.261 48.0578 71.6354 48.0578C73.1747 48.0578 74.1468 46.9927 74.1468 45.8394C74.1468 44.3945 72.924 43.7436 71.8647 43.3073C70.9797 42.9372 70.5761 42.5794 70.5761 42.0523C70.5761 41.6931 70.9153 41.2679 71.5375 41.2679C72.1382 41.2679 72.9682 41.828 73.0554 41.8844C73.1868 41.9738 73.3504 41.8844 73.4375 41.7495L73.8519 41.111C73.9283 40.9995 73.8961 40.8083 73.7861 40.7408C73.5676 40.5729 72.7161 39.9894 71.6018 39.9894C69.8654 39.9894 69.1454 41.144 69.1454 42.1417C69.1454 43.4642 70.1711 44.1358 71.1982 44.5624C72.1154 44.9436 72.5847 45.3358 72.5847 45.9069C72.5847 46.3885 72.1583 46.7697 71.5911 46.7697C70.8818 46.7697 69.9968 46.1092 69.9432 46.0748C69.8453 45.9963 69.6589 45.9963 69.5718 46.1532L69.1789 46.8482C69.081 47.0271 69.136 47.0835 69.2339 47.1839ZM75.1525 47.1839C75.3711 47.3972 76.1783 48.0578 77.554 48.0578C79.0934 48.0578 80.0655 46.9927 80.0655 45.8394C80.0655 44.3945 78.8426 43.7436 77.7833 43.3073C76.8983 42.9372 76.4947 42.5794 76.4947 42.0523C76.4947 41.6931 76.834 41.2679 77.4561 41.2679C78.0568 41.2679 78.8869 41.828 78.974 41.8844C79.1054 41.9738 79.269 41.8844 79.3562 41.7495L79.7718 41.111C79.8483 40.9995 79.8161 40.8083 79.7061 40.7408C79.4876 40.5729 78.6361 39.9894 77.5232 39.9894C75.7867 39.9894 75.0667 41.144 75.0667 42.1417C75.0667 43.4642 76.0925 44.1358 77.1196 44.5624C78.0367 44.9436 78.506 45.3358 78.506 45.9069C78.506 46.3885 78.0796 46.7697 77.5125 46.7697C76.8031 46.7697 75.9181 46.1092 75.8632 46.0748C75.7653 45.9963 75.5789 45.9963 75.4917 46.1532L75.0989 46.8482C74.9996 47.0271 75.0533 47.0835 75.1525 47.1839ZM80.9169 44.0353C80.9169 46.2771 82.6534 48.0578 84.8364 48.0578C87.0193 48.0578 88.7665 46.2757 88.7665 44.0353C88.7665 41.7936 87.0193 39.9894 84.8364 39.9894C82.6534 39.9894 80.9169 41.7936 80.9169 44.0353ZM82.3369 44.0353C82.3369 42.6234 83.4619 41.4468 84.8377 41.4468C86.2134 41.4468 87.3492 42.6234 87.3492 44.0353C87.3492 45.4472 86.2134 46.6018 84.8377 46.6018C83.4619 46.6018 82.3369 45.4472 82.3369 44.0353ZM89.8057 47.1839C90.0242 47.3972 90.8328 48.0578 92.2072 48.0578C93.7465 48.0578 94.7187 46.9927 94.7187 45.8394C94.7187 44.3945 93.4958 43.7436 92.4365 43.3073C91.5515 42.9372 91.1479 42.5794 91.1479 42.0523C91.1479 41.6931 91.4858 41.2679 92.1093 41.2679C92.71 41.2679 93.54 41.828 93.6272 41.8844C93.7586 41.9738 93.9222 41.8844 94.0093 41.7495L94.4237 41.111C94.5001 40.9995 94.4679 40.8083 94.358 40.7408C94.1394 40.5729 93.2879 39.9894 92.1737 39.9894C90.4372 39.9894 89.7172 41.144 89.7172 42.1417C89.7172 43.4642 90.7429 44.1358 91.77 44.5624C92.6872 44.9436 93.1565 45.3358 93.1565 45.9069C93.1565 46.3885 92.7315 46.7697 92.1629 46.7697C91.4536 46.7697 90.5686 46.1092 90.5136 46.0748C90.4158 45.9963 90.2294 45.9963 90.1422 46.1532L89.7493 46.8482C89.6515 47.0271 89.7064 47.0835 89.8057 47.1839ZM96.1158 47.733C96.1158 47.8459 96.2137 47.9463 96.3237 47.9463H97.3387C97.4473 47.9463 97.5466 47.8459 97.5466 47.733V40.3142C97.5466 40.2028 97.4487 40.1009 97.3387 40.1009H96.3237C96.2151 40.1009 96.1158 40.2014 96.1158 40.3142V47.733ZM96.8372 39.194C97.2744 39.194 97.623 38.8349 97.623 38.3876C97.623 37.939 97.273 37.5812 96.8372 37.5812C96.4001 37.5812 96.0515 37.9404 96.0515 38.3876C96.0501 38.8362 96.4001 39.194 96.8372 39.194ZM98.7252 47.9463H99.6745C99.8489 47.9463 99.9481 47.8349 99.991 47.722L100.526 46.5124H103.79L104.325 47.722C104.401 47.8789 104.478 47.9463 104.641 47.9463H105.591C105.754 47.9463 105.843 47.8005 105.777 47.6546L102.414 40.1133C102.382 40.0459 102.338 39.9894 102.229 39.9894H102.119C102.021 39.9894 101.966 40.0459 101.934 40.1133L98.5388 47.6546C98.4745 47.8005 98.5616 47.9463 98.7252 47.9463ZM101.062 45.2683L102.132 42.8037H102.165L103.257 45.2683H101.062ZM106.379 47.1839C106.598 47.3972 107.406 48.0578 108.782 48.0578C110.321 48.0578 111.293 46.9927 111.293 45.8394C111.293 44.3945 110.07 43.7436 109.011 43.3073C108.126 42.9372 107.723 42.5794 107.723 42.0523C107.723 41.6931 108.062 41.2679 108.684 41.2679C109.285 41.2679 110.115 41.828 110.202 41.8844C110.333 41.9738 110.497 41.8844 110.584 41.7495L110.998 41.111C111.075 40.9995 111.043 40.8083 110.933 40.7408C110.714 40.5729 109.863 39.9894 108.748 39.9894C107.012 39.9894 106.292 41.144 106.292 42.1417C106.292 43.4642 107.318 44.1358 108.345 44.5624C109.262 44.9436 109.731 45.3358 109.731 45.9069C109.731 46.3885 109.305 46.7697 108.738 46.7697C108.028 46.7697 107.143 46.1092 107.088 46.0748C106.99 45.9963 106.804 45.9963 106.717 46.1532L106.324 46.8482C106.227 47.0271 106.281 47.0835 106.379 47.1839ZM112.69 47.733C112.69 47.8459 112.788 47.9463 112.898 47.9463H113.913C114.022 47.9463 114.121 47.8459 114.121 47.733V40.3142C114.121 40.2028 114.023 40.1009 113.913 40.1009H112.898C112.788 40.1009 112.69 40.2014 112.69 40.3142V47.733ZM113.412 39.194C113.849 39.194 114.198 38.8349 114.198 38.3876C114.198 37.939 113.848 37.5812 113.412 37.5812C112.975 37.5812 112.626 37.9404 112.626 38.3876C112.625 38.8362 112.975 39.194 113.412 39.194ZM117.571 47.733C117.571 47.8459 117.658 47.9463 117.779 47.9463H118.783C118.893 47.9463 118.991 47.8459 118.991 47.733V44.1592L121.513 40.4271C121.601 40.2812 121.513 40.1023 121.339 40.1023H120.214C120.127 40.1023 120.072 40.1587 120.04 40.2028L118.293 42.7803L116.546 40.2028C116.513 40.1573 116.458 40.1023 116.371 40.1023H115.257C115.083 40.1023 114.995 40.2812 115.083 40.4271L117.571 44.1702V47.733V47.733ZM121.066 47.9463C120.902 47.9463 120.815 47.8005 120.881 47.6546L124.277 40.1133C124.309 40.0459 124.364 39.9894 124.462 39.9894H124.571C124.679 39.9894 124.724 40.0459 124.757 40.1133L128.12 47.6546C128.186 47.8005 128.099 47.9463 127.934 47.9463H126.984C126.821 47.9463 126.744 47.8789 126.668 47.722L126.133 46.5124H122.868L122.333 47.722C122.289 47.8335 122.191 47.9463 122.016 47.9463H121.066ZM123.401 45.2683H125.596L124.505 42.8037H124.473L123.401 45.2683ZM128.719 47.1839C128.938 47.3972 129.747 48.0578 131.121 48.0578C132.66 48.0578 133.632 46.9927 133.632 45.8394C133.632 44.3945 132.41 43.7436 131.35 43.3073C130.465 42.9372 130.062 42.5794 130.062 42.0523C130.062 41.6931 130.401 41.2679 131.023 41.2679C131.624 41.2679 132.454 41.828 132.541 41.8844C132.672 41.9738 132.836 41.8844 132.923 41.7495L133.339 41.111C133.415 40.9995 133.382 40.8083 133.273 40.7408C133.054 40.5729 132.203 39.9894 131.089 39.9894C129.352 39.9894 128.632 41.144 128.632 42.1417C128.632 43.4642 129.658 44.1358 130.685 44.5624C131.602 44.9436 132.072 45.3358 132.072 45.9069C132.072 46.3885 131.645 46.7697 131.078 46.7697C130.369 46.7697 129.484 46.1092 129.429 46.0748C129.331 45.9963 129.144 45.9963 129.057 46.1532L128.664 46.8482C128.567 47.0271 128.62 47.0835 128.719 47.1839ZM135.03 47.733C135.03 47.8459 135.127 47.9463 135.237 47.9463H136.252C136.361 47.9463 136.46 47.8459 136.46 47.733V40.3142C136.46 40.2028 136.362 40.1009 136.252 40.1009H135.237C135.127 40.1009 135.03 40.2014 135.03 40.3142V47.733Z" fill="black"/>
<path fill-rule="evenodd" clip-rule="evenodd" d="M24.4942 20.0229C24.7288 20.7041 25.0023 21.3716 25.3121 22.0211C25.6192 22.6638 25.9651 23.294 26.3473 23.9037C26.6838 24.4417 27.0485 24.9633 27.4401 25.4642C27.8008 25.9266 28.1843 26.3739 28.5919 26.8032L28.8627 26.6064L29.2503 26.3326C29.4621 26.1853 29.6646 26.0477 29.8577 25.9197C30.0575 25.7876 30.2586 25.6583 30.4584 25.5317C31.0859 25.1367 31.7161 24.7734 32.3517 24.4362C32.9886 24.0991 33.6296 23.7881 34.2813 23.5018C34.8954 23.2321 35.5202 22.9817 36.1571 22.7505C36.7713 22.5275 37.4001 22.3197 38.0465 22.1257C38.2771 21.6344 38.501 21.0661 38.7129 20.4495C38.9502 19.7628 39.1715 19.0156 39.3726 18.2518C39.5898 17.4248 39.7816 16.5784 39.9411 15.7624C40.0967 14.9601 40.22 14.1922 40.3032 13.5014L26.9748 2.58853C26.5779 3.14174 26.2145 3.71147 25.8847 4.29495C25.524 4.93211 25.2035 5.58853 24.9219 6.25872C24.6001 7.02523 24.3306 7.80688 24.1147 8.59816C23.8948 9.40046 23.7285 10.2124 23.6159 11.0284L23.5341 11.6188L22.9548 11.6532C22.684 11.6697 22.4144 11.7138 22.153 11.7881C21.8928 11.861 21.6394 11.9628 21.3954 12.0908C21.158 12.2161 20.9328 12.3688 20.7223 12.5463C20.5171 12.7183 20.3267 12.9165 20.1537 13.1394L20.1524 13.1408C19.8252 13.5619 19.5946 14.0298 19.4591 14.5156C19.317 15.0206 19.2768 15.5477 19.3331 16.0638C19.3894 16.5771 19.5436 17.0794 19.7903 17.5404C20.029 17.9821 20.3535 18.3853 20.7611 18.7197L20.7625 18.7211C20.973 18.8945 21.1956 19.0404 21.4262 19.1601C21.6622 19.2826 21.9089 19.3803 22.1597 19.4505C22.4171 19.522 22.6773 19.5661 22.9387 19.5826C23.2029 19.5991 23.4684 19.5881 23.7285 19.5495L24.3011 19.4656L24.4942 20.0229Z" fill="#27749C"/>
<path fill-rule="evenodd" clip-rule="evenodd" d="M57.0398 27.4321L46.0485 41.4963L34.104 31.6624C34.3199 31.4574 34.5344 31.2454 34.7503 31.0307C35.0064 30.7734 35.2571 30.5106 35.5012 30.2395C35.7774 29.9326 36.0482 29.6174 36.3044 29.2954L34.2126 27.6069C34.0155 27.8491 33.8143 28.0885 33.6092 28.3225C33.3987 28.5619 33.1855 28.7931 32.9682 29.0202C32.7457 29.2541 32.519 29.4812 32.2911 29.6973C32.0631 29.9188 31.8272 30.1349 31.5858 30.3482L31.2761 30.6165L30.9623 30.8794C30.9502 30.8904 30.9368 30.9 30.9247 30.911L29.9258 29.1551L30.2275 28.9335L30.5801 28.6789L30.9408 28.4285L31.3216 28.1766L31.8339 27.8463C32.4627 27.4514 33.1037 27.0867 33.758 26.7509C34.4124 26.4179 35.0788 26.1165 35.7506 25.8454C36.4277 25.5716 37.1116 25.3335 37.8075 25.1243C38.5021 24.9165 39.2127 24.739 39.9328 24.5904L40.5509 24.4651L40.5 23.8225C40.4825 23.5707 40.4852 23.3174 40.5107 23.0684C40.5362 22.8207 40.5845 22.5771 40.6582 22.3376C40.7266 22.1009 40.8204 21.8697 40.9371 21.6454C41.0484 21.4294 41.1825 21.2188 41.338 21.0179C41.6679 20.5996 42.0608 20.2665 42.4939 20.0216C42.9431 19.7697 43.4325 19.6129 43.9313 19.5564C44.4328 19.5014 44.9477 19.544 45.4398 19.6913C45.9118 19.8317 46.3677 20.0684 46.7753 20.4069C46.9939 20.5844 47.1856 20.7812 47.3559 20.9918C47.5289 21.2106 47.6777 21.4418 47.7971 21.684C47.9218 21.9317 48.0196 22.1945 48.0907 22.4615C48.1618 22.7298 48.2047 23.0078 48.2194 23.2858L48.2248 23.4468V23.6078L48.2074 24.2477L48.8255 24.3413C49.3954 24.4266 49.9586 24.5312 50.511 24.6564C51.0742 24.7817 51.6239 24.9248 52.1616 25.0858C52.7047 25.2468 53.2424 25.4298 53.772 25.6294C54.3044 25.8303 54.8273 26.0477 55.3368 26.283C55.5246 26.3945 55.715 26.5115 55.9027 26.634C56.0931 26.7564 56.2862 26.8858 56.4779 27.022L56.8279 27.2725L57.0398 27.4321Z" fill="#F05236"/>
<path fill-rule="evenodd" clip-rule="evenodd" d="M30.9242 30.9082C30.8022 31.0073 30.6761 31.1092 30.5434 31.2124C30.3959 31.3266 30.2444 31.4408 30.0875 31.5592C29.9373 31.6706 29.7885 31.7807 29.6383 31.8839C29.4908 31.9885 29.3393 32.0945 29.1824 32.1991L28.8659 32.4096L28.5468 32.6119C28.0547 32.9188 27.5224 33.2078 26.9565 33.4761C26.3706 33.7541 25.7551 34.0101 25.1155 34.2413C24.4491 34.4862 23.7558 34.705 23.0572 34.8949C22.3372 35.0931 21.6024 35.2624 20.8689 35.4027L20.2401 35.5252L20.2937 36.1761C20.3138 36.428 20.3111 36.6812 20.2856 36.9303C20.2602 37.1807 20.2119 37.4271 20.1408 37.6665C20.0698 37.8977 19.9759 38.1303 19.8619 38.356C19.7479 38.5748 19.6139 38.7853 19.4556 38.9835V38.9862C19.1285 39.4046 18.7329 39.7376 18.3025 39.9826C17.8533 40.2344 17.3639 40.3913 16.8651 40.4463C16.3609 40.5041 15.8487 40.4615 15.3566 40.3142C14.8819 40.1738 14.4287 39.9371 14.021 39.6014L14.0184 39.5986C13.7998 39.4197 13.608 39.2216 13.4404 39.011C13.2661 38.7922 13.1186 38.561 12.9966 38.3216C12.8746 38.0738 12.7754 37.811 12.7056 37.544C12.6346 37.2729 12.5917 36.9977 12.5769 36.7197L12.5715 36.556V36.3977L12.589 35.7578L11.9708 35.6642C11.401 35.5789 10.8378 35.4743 10.2853 35.3491C9.72217 35.2238 9.17241 35.0807 8.63203 34.9197C8.09166 34.7587 7.55397 34.5757 7.02432 34.3761C6.49199 34.1752 5.96904 33.9578 5.45683 33.7225C5.2691 33.611 5.0787 33.494 4.89097 33.3688C4.70057 33.2463 4.50748 33.1183 4.31574 32.9807L3.97113 32.733L3.75391 32.5679L14.7451 18.5037L26.6897 28.3349C26.4899 28.5096 26.2941 28.6858 26.0984 28.866C25.853 29.0945 25.6143 29.3243 25.3837 29.5555C25.0645 29.8803 24.7521 30.2133 24.4585 30.5573C24.3445 30.6894 24.2359 30.8229 24.1259 30.9578L26.2606 32.5665L26.75 32.0257C26.9351 31.8206 27.1255 31.6197 27.3159 31.4216C27.513 31.2206 27.7114 31.028 27.9086 30.8436C28.1083 30.6564 28.3189 30.4665 28.5401 30.2738C28.756 30.0839 28.9839 29.894 29.2199 29.7041L29.5444 29.444L29.8662 29.1963L29.9239 29.1523L30.9242 30.9082Z" fill="#1D9698"/>
<path fill-rule="evenodd" clip-rule="evenodd" d="M37.8351 48.3468C38.106 48.3317 38.3755 48.2862 38.637 48.2133C38.8971 48.1404 39.1505 48.0385 39.3946 47.9106C39.6319 47.7853 39.8585 47.6326 40.069 47.455C40.2742 47.2817 40.4646 47.0835 40.6376 46.8606C40.9647 46.4394 41.1954 45.9716 41.3321 45.4858C41.4743 44.9807 41.5145 44.4537 41.4582 43.9376C41.4019 43.4243 41.2477 42.9206 41.001 42.461C40.7623 42.0179 40.4378 41.6147 40.0288 41.2803C39.8183 41.1083 39.5957 40.9624 39.3664 40.8427C39.1304 40.7202 38.8837 40.6225 38.633 40.5523C38.3768 40.4807 38.1154 40.4367 37.8539 40.4202C37.5897 40.4037 37.3256 40.4147 37.0641 40.4532L36.4929 40.5372L36.2998 39.9771C36.0665 39.3014 35.797 38.6395 35.4899 37.994C35.1842 37.3541 34.8436 36.7294 34.4655 36.1252C34.1356 35.5968 33.7776 35.0821 33.3914 34.5839C33.0388 34.1284 32.6633 33.6881 32.2664 33.2642C31.4552 33.9165 30.6896 34.4683 29.9454 34.9445C29.1636 35.4427 28.3993 35.8596 27.623 36.2202C26.8332 36.5876 26.03 36.8959 25.1812 37.1752C24.3579 37.4463 23.4917 37.6885 22.5531 37.928C22.2755 38.6752 22.0074 39.4569 21.7606 40.2537C21.5233 41.0216 21.3047 41.8046 21.117 42.5876C20.9467 43.2936 20.8019 43.9982 20.6893 44.6849C20.5887 45.3 20.5136 45.9028 20.4707 46.4821L33.8178 57.4101C34.2147 56.8569 34.5781 56.2872 34.908 55.7037C35.2687 55.0651 35.5891 54.4101 35.8707 53.7399C36.1925 52.9734 36.4621 52.1917 36.6779 51.4005C36.8979 50.5982 37.0628 49.7862 37.1768 48.9702L37.2585 48.3812L37.8351 48.3468Z" fill="#F27830"/>
</svg>
