<svg width="575" height="400" viewBox="0 0 575 400" fill="none" xmlns="http://www.w3.org/2000/svg">
<g clip-path="url(#clip0_62_22631)">
<rect  fill="#27749C"/>
<path fill-rule="evenodd" clip-rule="evenodd" d="M7.89822 -2.56326C8.71166 -0.201893 9.65989 2.11177 10.7336 4.36342C11.7981 6.59122 12.9973 8.77608 14.322 10.8894C15.4887 12.7546 16.753 14.5626 18.1103 16.2991C19.3607 17.9019 20.6901 19.4523 22.1031 20.9407L23.042 20.2585L24.3854 19.3092C25.1198 18.7988 25.8217 18.3217 26.491 17.8781C27.1836 17.4201 27.8808 16.9717 28.5734 16.5328C30.7488 15.1637 32.9334 13.9043 35.1367 12.7355C37.3446 11.5668 39.5664 10.4887 41.8254 9.49641C43.9543 8.56141 46.1204 7.69319 48.3282 6.89176C50.4571 6.11895 52.6371 5.39861 54.8776 4.72598C55.677 3.02293 56.4533 1.05273 57.1877 -1.08442C58.0104 -3.46487 58.7774 -6.05523 59.4746 -8.70282C60.2276 -11.5699 60.8923 -14.5037 61.4455 -17.3326C61.9846 -20.1137 62.4123 -22.7756 62.7005 -25.1704L16.4974 -63C15.1215 -61.0823 13.8619 -59.1073 12.7184 -57.0847C11.468 -54.8759 10.3571 -52.6004 9.381 -50.2772C8.26543 -47.6201 7.33115 -44.9105 6.58279 -42.1675C5.82049 -39.3863 5.24411 -36.5717 4.85366 -33.7429L4.57012 -31.6964L2.5621 -31.5771C1.62316 -31.5198 0.688874 -31.3672 -0.217524 -31.1096C-1.11927 -30.8568 -1.99778 -30.5037 -2.84375 -30.0601C-3.66648 -29.626 -4.44738 -29.0965 -5.17715 -28.4811C-5.88832 -27.8848 -6.54837 -27.1978 -7.14799 -26.425L-7.15263 -26.4202C-8.28679 -24.9605 -9.08628 -23.3385 -9.55575 -21.6546C-10.0485 -19.9038 -10.1879 -18.0767 -9.99268 -16.2878C-9.79746 -14.5084 -9.26291 -12.7672 -8.40765 -11.1691C-7.58027 -9.63783 -6.45541 -8.24009 -5.04236 -7.08087L-5.0377 -7.0761C-4.30794 -6.47503 -3.53634 -5.96936 -2.73685 -5.55433C-1.91876 -5.12976 -1.06349 -4.79106 -0.194282 -4.54777C0.698173 -4.29971 1.59992 -4.14705 2.50632 -4.0898C3.42201 -4.03256 4.34236 -4.07072 5.24411 -4.2043L7.22889 -4.49529L7.89822 -2.56326Z" fill="white" fill-opacity="0.1"/>
<path fill-rule="evenodd" clip-rule="evenodd" d="M120.715 23.121L82.6136 71.8749L41.2074 37.7853C41.9558 37.0745 42.6995 36.3399 43.4478 35.5957C44.3357 34.7036 45.2049 33.7925 46.0508 32.8527C47.0084 31.7889 47.9473 30.6964 48.8351 29.5802L41.5839 23.7268C40.9006 24.5664 40.2034 25.3965 39.4922 26.2074C38.7625 27.0375 38.0234 27.8389 37.2704 28.6261C36.4988 29.437 35.7133 30.2242 34.9231 30.9731C34.1329 31.7412 33.3148 32.4901 32.4781 33.2295L31.4044 34.1598L30.3167 35.0709C30.2749 35.1091 30.2284 35.1425 30.1865 35.1806L26.7236 29.0936L27.7695 28.3255L28.992 27.443L30.2423 26.5748L31.5624 25.7018L33.338 24.5569C35.518 23.1878 37.7399 21.9236 40.0082 20.7596C42.2765 19.6052 44.5867 18.5604 46.9154 17.6206C49.2627 16.6713 51.6333 15.846 54.0457 15.1209C56.4535 14.4006 58.917 13.7852 61.4131 13.27L63.556 12.8359L63.3793 10.6081C63.3189 9.73511 63.3282 8.85735 63.4165 7.9939C63.5048 7.13522 63.6721 6.29085 63.9278 5.46079C64.1649 4.64028 64.4902 3.83884 64.8946 3.06125C65.2804 2.31229 65.7453 1.58242 66.2844 0.885934C67.4279 -0.564281 68.7898 -1.71872 70.2912 -2.56786C71.8483 -3.44085 73.5449 -3.98469 75.2741 -4.18027C77.0125 -4.37109 78.7974 -4.22321 80.5033 -3.71277C82.1394 -3.22619 83.7198 -2.40567 85.1329 -1.23214C85.8905 -0.616757 86.5552 0.0654163 87.1455 0.795294C87.7452 1.55379 88.2611 2.35524 88.6748 3.19483C89.1071 4.05351 89.4464 4.96466 89.6927 5.89013C89.9391 6.82037 90.0878 7.784 90.139 8.74763L90.1576 9.30577V9.86391L90.0971 12.0822L92.24 12.4066C94.2154 12.7023 96.1677 13.0649 98.0828 13.499C100.035 13.9331 101.941 14.4292 103.805 14.9874C105.687 15.5455 107.551 16.18 109.387 16.8717C111.232 17.5682 113.045 18.3219 114.812 19.1377C115.462 19.5241 116.122 19.9295 116.773 20.3541C117.433 20.7787 118.103 21.2271 118.767 21.6994L119.98 22.5676L120.715 23.121Z" fill="white" fill-opacity="0.1"/>
<path fill-rule="evenodd" clip-rule="evenodd" d="M30.1864 35.1711C29.7634 35.5145 29.3265 35.8675 28.8663 36.2253C28.355 36.6213 27.8298 37.0172 27.2859 37.4275C26.7653 37.8139 26.2494 38.1955 25.7288 38.5533C25.2175 38.9159 24.6922 39.2832 24.1484 39.6457L23.0514 40.3756L21.9451 41.0769C20.2393 42.1407 18.3939 43.1425 16.4324 44.0727C14.4011 45.0363 12.2676 45.9236 10.0504 46.7251C7.74026 47.5742 5.33714 48.3327 2.91544 48.991C0.41935 49.678 -2.12786 50.2647 -4.67043 50.7513L-6.85043 51.1759L-6.6645 53.4323C-6.59478 54.3053 -6.60408 55.1831 -6.69239 56.0465C-6.78071 56.9147 -6.94804 57.7686 -7.19439 58.5987C-7.44075 59.4001 -7.76612 60.2063 -8.16122 60.9887C-8.55632 61.7472 -9.02113 62.4771 -9.56962 63.164V63.1735C-10.7038 64.6238 -12.075 65.7782 -13.5671 66.6274C-15.1242 67.5004 -16.8208 68.0442 -18.5499 68.235C-20.2977 68.4353 -22.0733 68.2875 -23.7792 67.777C-25.4246 67.2905 -26.9957 66.4699 -28.4088 65.3059L-28.4181 65.2964C-29.1757 64.6762 -29.8404 63.9893 -30.4214 63.2594C-31.0257 62.5009 -31.537 61.6995 -31.96 60.8694C-32.383 60.0107 -32.7269 59.0996 -32.9686 58.1741C-33.215 57.2344 -33.3637 56.2803 -33.4149 55.3166L-33.4335 54.749V54.2003L-33.373 51.9821L-35.5159 51.6577C-37.4913 51.3619 -39.4436 50.9994 -41.3586 50.5653C-43.3109 50.1312 -45.2166 49.635 -47.0899 49.0769C-48.9631 48.5188 -50.827 47.8843 -52.663 47.1926C-54.5084 46.4961 -56.3212 45.7424 -58.0968 44.9266C-58.7475 44.5402 -59.4076 44.1347 -60.0583 43.7006C-60.7184 43.276 -61.3877 42.8324 -62.0524 42.3553L-63.247 41.4967L-64 40.9242L-25.8987 -7.82971L15.5074 26.2503C14.8148 26.8562 14.1362 27.4668 13.4575 28.0917C12.6069 28.8836 11.7795 29.6803 10.98 30.4817C9.87378 31.6075 8.79076 32.762 7.7728 33.9546C7.3777 34.4126 7.00119 34.8753 6.62004 35.3428L14.02 40.9194L15.7166 39.0447C16.358 38.3339 17.0181 37.6374 17.6781 36.9504C18.3614 36.2539 19.0493 35.5861 19.7326 34.9468C20.4252 34.2981 21.155 33.6397 21.9219 32.9719C22.6703 32.3136 23.4605 31.6552 24.2785 30.9969L25.4034 30.0953L26.519 29.2366L26.7188 29.084L30.1864 35.1711Z" fill="white" fill-opacity="0.1"/>
<path fill-rule="evenodd" clip-rule="evenodd" d="M54.1434 95.6219C55.0823 95.5695 56.0166 95.412 56.923 95.1592C57.8247 94.9064 58.7032 94.5534 59.5492 94.1097C60.372 93.6756 61.1575 93.1461 61.8873 92.5307C62.5984 91.9296 63.2585 91.2427 63.8581 90.4699C64.9923 89.0101 65.7918 87.3882 66.2659 85.7042C66.7586 83.9534 66.898 82.1264 66.7028 80.3374C66.5076 78.5581 65.973 76.8121 65.1178 75.2188C64.2904 73.6827 63.1655 72.2849 61.7478 71.1257C61.0181 70.5294 60.2465 70.0238 59.4516 69.6087C58.6335 69.1842 57.7783 68.8454 56.909 68.6021C56.0212 68.3541 55.1148 68.2014 54.2084 68.1442C53.2928 68.0869 52.3771 68.1251 51.4707 68.2587L49.4905 68.5497L48.8212 66.6081C48.0124 64.2658 47.0781 61.9712 46.0137 59.7339C44.9539 57.5156 43.7733 55.3499 42.4625 53.2556C41.319 51.4238 40.0779 49.6396 38.7392 47.9127C37.5168 46.3337 36.2153 44.8072 34.8394 43.3379C32.0273 45.5991 29.3731 47.512 26.7934 49.1626C24.0835 50.8895 21.434 52.335 18.7427 53.5848C16.0049 54.8585 13.2206 55.9271 10.2783 56.8955C7.42435 57.8353 4.42161 58.6749 1.16787 59.5049C0.205692 62.0953 -0.723949 64.8049 -1.57922 67.567C-2.40195 70.2289 -3.1596 72.9433 -3.81035 75.6576C-4.40067 78.1049 -4.90267 80.5473 -5.29312 82.9278C-5.64174 85.0602 -5.90204 87.1496 -6.05078 89.158L40.2174 127.04C41.5932 125.122 42.8529 123.147 43.9964 121.125C45.2467 118.911 46.3576 116.641 47.3338 114.317C48.4493 111.66 49.3836 108.951 50.132 106.208C50.8943 103.426 51.466 100.612 51.8611 97.783L52.1446 95.7412L54.1434 95.6219Z" fill="white" fill-opacity="0.1"/>
<path fill-rule="evenodd" clip-rule="evenodd" d="M530.898 339.437C531.712 341.798 532.66 344.112 533.734 346.363C534.798 348.591 535.997 350.776 537.322 352.889C538.489 354.755 539.753 356.563 541.11 358.299C542.361 359.902 543.69 361.452 545.103 362.941L546.042 362.259L547.385 361.309C548.12 360.799 548.822 360.322 549.491 359.878C550.184 359.42 550.881 358.972 551.573 358.533C553.749 357.164 555.933 355.904 558.137 354.736C560.345 353.567 562.566 352.489 564.825 351.496C566.954 350.561 569.12 349.693 571.328 348.892C573.457 348.119 575.637 347.399 577.878 346.726C578.677 345.023 579.453 343.053 580.188 340.916C581.01 338.535 581.777 335.945 582.475 333.297C583.228 330.43 583.892 327.496 584.445 324.667C584.985 321.886 585.412 319.224 585.7 316.83L539.497 279C538.122 280.918 536.862 282.893 535.718 284.915C534.468 287.124 533.357 289.4 532.381 291.723C531.265 294.38 530.331 297.09 529.583 299.833C528.82 302.614 528.244 305.428 527.854 308.257L527.57 310.304L525.562 310.423C524.623 310.48 523.689 310.633 522.782 310.89C521.881 311.143 521.002 311.496 520.156 311.94C519.334 312.374 518.553 312.904 517.823 313.519C517.112 314.115 516.452 314.802 515.852 315.575L515.847 315.58C514.713 317.04 513.914 318.661 513.444 320.345C512.952 322.096 512.812 323.923 513.007 325.712C513.203 327.492 513.737 329.233 514.592 330.831C515.42 332.362 516.545 333.76 517.958 334.919L517.962 334.924C518.692 335.525 519.464 336.031 520.263 336.446C521.081 336.87 521.937 337.209 522.806 337.452C523.698 337.7 524.6 337.853 525.506 337.91C526.422 337.967 527.342 337.929 528.244 337.796L530.229 337.505L530.898 339.437Z" fill="white" fill-opacity="0.1"/>
<path fill-rule="evenodd" clip-rule="evenodd" d="M643.715 365.121L605.614 413.875L564.207 379.785C564.956 379.075 565.699 378.34 566.448 377.596C567.336 376.704 568.205 375.792 569.051 374.853C570.008 373.789 570.947 372.696 571.835 371.58L564.584 365.727C563.901 366.566 563.203 367.396 562.492 368.207C561.762 369.038 561.023 369.839 560.27 370.626C559.499 371.437 558.713 372.224 557.923 372.973C557.133 373.741 556.315 374.49 555.478 375.23L554.404 376.16L553.317 377.071C553.275 377.109 553.228 377.142 553.187 377.181L549.724 371.094L550.769 370.326L551.992 369.443L553.242 368.575L554.562 367.702L556.338 366.557C558.518 365.188 560.74 363.924 563.008 362.76C565.276 361.605 567.587 360.56 569.915 359.621C572.263 358.671 574.633 357.846 577.046 357.121C579.453 356.401 581.917 355.785 584.413 355.27L586.556 354.836L586.379 352.608C586.319 351.735 586.328 350.857 586.416 349.994C586.505 349.135 586.672 348.291 586.928 347.461C587.165 346.64 587.49 345.839 587.895 345.061C588.28 344.312 588.745 343.582 589.284 342.886C590.428 341.436 591.79 340.281 593.291 339.432C594.848 338.559 596.545 338.015 598.274 337.82C600.012 337.629 601.797 337.777 603.503 338.287C605.139 338.774 606.72 339.594 608.133 340.768C608.891 341.383 609.555 342.065 610.146 342.795C610.745 343.554 611.261 344.355 611.675 345.195C612.107 346.054 612.446 346.965 612.693 347.89C612.939 348.82 613.088 349.784 613.139 350.748L613.158 351.306V351.864L613.097 354.082L615.24 354.407C617.215 354.702 619.168 355.065 621.083 355.499C623.035 355.933 624.941 356.429 626.805 356.987C628.687 357.546 630.551 358.18 632.387 358.872C634.232 359.568 636.045 360.322 637.812 361.138C638.462 361.524 639.122 361.93 639.773 362.354C640.433 362.779 641.103 363.227 641.767 363.699L642.98 364.568L643.715 365.121Z" fill="white" fill-opacity="0.1"/>
<path fill-rule="evenodd" clip-rule="evenodd" d="M553.186 377.171C552.763 377.515 552.326 377.868 551.866 378.225C551.355 378.621 550.83 379.017 550.286 379.427C549.765 379.814 549.249 380.196 548.729 380.553C548.217 380.916 547.692 381.283 547.148 381.646L546.051 382.376L544.945 383.077C543.239 384.141 541.394 385.142 539.432 386.073C537.401 387.036 535.268 387.924 533.05 388.725C530.74 389.574 528.337 390.333 525.915 390.991C523.419 391.678 520.872 392.265 518.33 392.751L516.15 393.176L516.336 395.432C516.405 396.305 516.396 397.183 516.308 398.047C516.219 398.915 516.052 399.769 515.806 400.599C515.559 401.4 515.234 402.206 514.839 402.989C514.444 403.747 513.979 404.477 513.43 405.164V405.174C512.296 406.624 510.925 407.778 509.433 408.627C507.876 409.5 506.179 410.044 504.45 410.235C502.702 410.435 500.927 410.287 499.221 409.777C497.575 409.29 496.004 408.47 494.591 407.306L494.582 407.296C493.824 406.676 493.16 405.989 492.579 405.259C491.974 404.501 491.463 403.699 491.04 402.869C490.617 402.011 490.273 401.1 490.031 400.174C489.785 399.234 489.636 398.28 489.585 397.317L489.567 396.749V396.2L489.627 393.982L487.484 393.658C485.509 393.362 483.556 392.999 481.641 392.565C479.689 392.131 477.783 391.635 475.91 391.077C474.037 390.519 472.173 389.884 470.337 389.193C468.492 388.496 466.679 387.742 464.903 386.927C464.252 386.54 463.592 386.135 462.942 385.701C462.282 385.276 461.612 384.832 460.948 384.355L459.753 383.497L459 382.924L497.101 334.17L538.507 368.25C537.815 368.856 537.136 369.467 536.458 370.092C535.607 370.884 534.78 371.68 533.98 372.482C532.874 373.608 531.791 374.762 530.773 375.955C530.378 376.413 530.001 376.875 529.62 377.343L537.02 382.919L538.717 381.045C539.358 380.334 540.018 379.637 540.678 378.95C541.361 378.254 542.049 377.586 542.733 376.947C543.425 376.298 544.155 375.64 544.922 374.972C545.67 374.314 546.46 373.655 547.279 372.997L548.403 372.095L549.519 371.237L549.719 371.084L553.186 377.171Z" fill="white" fill-opacity="0.1"/>
<path fill-rule="evenodd" clip-rule="evenodd" d="M577.143 437.622C578.082 437.569 579.017 437.412 579.923 437.159C580.825 436.906 581.703 436.553 582.549 436.11C583.372 435.676 584.158 435.146 584.887 434.531C585.598 433.93 586.258 433.243 586.858 432.47C587.992 431.01 588.792 429.388 589.266 427.704C589.759 425.953 589.898 424.126 589.703 422.337C589.508 420.558 588.973 418.812 588.118 417.219C587.29 415.683 586.166 414.285 584.748 413.126C584.018 412.529 583.246 412.024 582.452 411.609C581.634 411.184 580.778 410.845 579.909 410.602C579.021 410.354 578.115 410.201 577.208 410.144C576.293 410.087 575.377 410.125 574.471 410.259L572.491 410.55L571.821 408.608C571.012 406.266 570.078 403.971 569.014 401.734C567.954 399.516 566.773 397.35 565.462 395.256C564.319 393.424 563.078 391.64 561.739 389.913C560.517 388.334 559.215 386.807 557.839 385.338C555.027 387.599 552.373 389.512 549.793 391.163C547.083 392.889 544.434 394.335 541.743 395.585C539.005 396.859 536.221 397.927 533.278 398.895C530.424 399.835 527.422 400.675 524.168 401.505C523.206 404.095 522.276 406.805 521.421 409.567C520.598 412.229 519.84 414.943 519.19 417.658C518.599 420.105 518.097 422.547 517.707 424.928C517.358 427.06 517.098 429.15 516.949 431.158L563.217 469.04C564.593 467.122 565.853 465.147 566.996 463.125C568.247 460.911 569.358 458.641 570.334 456.317C571.449 453.66 572.384 450.951 573.132 448.208C573.894 445.426 574.466 442.612 574.861 439.783L575.145 437.741L577.143 437.622Z" fill="white" fill-opacity="0.1"/>
</g>
<rect x="0.5" y="0.5" width="574" height="399" stroke="#27749C"/>
<defs>
<clipPath id="clip0_62_22631">
<rect width="575" height="400" fill="white"/>
</clipPath>
</defs>
</svg>
